<?xml version="1.0" standalone="no"?>
<!DOCTYPE svg PUBLIC "-//W3C//DTD SVG 1.1//EN" "http://www.w3.org/Graphics/SVG/1.1/DTD/svg11.dtd" >
<svg xmlns="http://www.w3.org/2000/svg">
<metadata></metadata>
<defs>
<font id="walkway_ultracondensed_semiRg" horiz-adv-x="526" >
<font-face units-per-em="2048" ascent="1638" descent="-410" />
<missing-glyph horiz-adv-x="354" />
<glyph horiz-adv-x="2048" />
<glyph horiz-adv-x="2048" />
<glyph unicode="&#xd;" horiz-adv-x="354" />
<glyph unicode=" "  horiz-adv-x="354" />
<glyph unicode="&#x09;" horiz-adv-x="354" />
<glyph unicode="&#xa0;" horiz-adv-x="354" />
<glyph unicode="!" horiz-adv-x="194" d="M72 37v131q0 35 26 35q25 0 25 -35v-131q0 -37 -25 -37q-27 0 -26 37zM74 346v1043h51v-1043h-51z" />
<glyph unicode="&#x22;" horiz-adv-x="292" d="M63 1155v186q0 35 25 35q27 0 27 -35v-186q0 -35 -27 -35q-25 0 -25 35zM178 1155v186q0 35 25 35q27 0 26 -35v-186q1 -35 -26 -35q-25 0 -25 35z" />
<glyph unicode="#" horiz-adv-x="532" d="M63 485l7 68h88l24 182h-90l6 68h90l19 155h53l-20 -155h90l18 155h51l-18 -155h90l-6 -68h-90l-23 -182h88l-6 -68h-88l-20 -155h-52l19 155h-88l-21 -155h-51l19 155h-89zM211 553h88l25 182h-91z" />
<glyph unicode="$" horiz-adv-x="645" d="M23 442v35h51v-26q0 -309 145 -390v660q-176 88 -176 336q0 285 176 352v133h51v-121q18 2 41 2q29 0 56 -4v123h51v-137q176 -80 180 -426h-53q-8 281 -127 352v-620q96 -49 137 -111q57 -84 57 -256q0 -119 -45 -213q-51 -114 -149 -149v-125h-51v110q-18 -2 -35 -2 q-33 0 -62 8v-116h-51v131q-197 92 -196 454zM96 1057q0 -180 123 -258v536q-123 -66 -123 -278zM270 41q29 -8 62 -8q16 0 35 4v622l-97 39v-657zM270 772l97 -37v615q-25 6 -56 6q-23 0 -41 -4v-580zM418 53q141 61 141 297q1 117 -24 168q-31 63 -117 117v-582z" />
<glyph unicode="%" horiz-adv-x="751" d="M43 977q0 369 150 369t149 -369q0 -361 -152 -361q-147 0 -147 361zM96 977q0 -295 97 -295q96 0 96 295q-1 301 -99 301q-94 0 -94 -301zM111 0l491 1389h57l-491 -1389h-57zM414 324q0 371 149 370q150 0 150 -370q0 -363 -152 -363q-147 0 -147 363zM467 324 q0 -295 96 -295t96 295q0 303 -98 303q-94 0 -94 -303z" />
<glyph unicode="&#x26;" horiz-adv-x="604" d="M33 313q0 143 57 260q47 94 158 213q-125 125 -125 336q0 98 33 170q45 96 135 97q92 0 137 -97q33 -72 33 -174q0 -186 -189 -395q-98 -106 -137 -184q-51 -102 -51 -226q0 -98 37 -178q49 -100 141 -100q129 0 191 231q33 129 34 291h54v-596h-54v236 q-82 -229 -219 -230q-119 0 -184 123q-51 96 -51 223zM174 1120q0 -188 113 -295q123 145 123 295q0 74 -27 131q-31 70 -90 70q-61 0 -94 -74q-25 -57 -25 -127z" />
<glyph unicode="'" horiz-adv-x="176" d="M63 1155v186q0 35 25 35q27 0 27 -35v-186q0 -35 -27 -35q-25 0 -25 35z" />
<glyph unicode="(" horiz-adv-x="233" d="M57 580q0 520 125 923h54q-127 -399 -127 -923t127 -924h-54q-125 406 -125 924z" />
<glyph unicode=")" horiz-adv-x="233" d="M-8 -344q135 399 135 924q0 524 -135 923h53q133 -397 133 -923q0 -525 -133 -924h-53z" />
<glyph unicode="*" horiz-adv-x="342" d="M35 1251q4 23 24 23q9 0 13 -4h2l61 -60v131q0 35 27 35t26 -35v-131l58 56q8 8 16 8q25 0 25 -31q0 -20 -11 -31l-73 -69l73 -76q16 -14 9 -39q-6 -23 -19 -22q-14 0 -78 67v-131q0 -35 -26 -35q-27 0 -27 35v131q-14 -16 -29 -35q-31 -31 -49 -30q-14 0 -20 18 q-8 25 10 41l74 76l-78 74q-10 12 -8 34z" />
<glyph unicode="+" horiz-adv-x="561" d="M63 481v68h193v338h51v-338h193v-68h-193v-344h-51v344h-193z" />
<glyph unicode="," horiz-adv-x="262" d="M86 -145l43 295q6 41 35 24q20 -8 14 -39l-43 -293q-4 -39 -37 -24q-12 8 -12 26v11z" />
<glyph unicode="-" horiz-adv-x="350" d="M37 520v41h289v-41h-289z" />
<glyph unicode="." horiz-adv-x="208" d="M80 29v112q0 33 24 33q27 0 27 -33v-112q0 -33 -27 -33q-25 0 -24 33z" />
<glyph unicode="/" horiz-adv-x="350" d="M-16 0l342 1421h51l-342 -1421h-51z" />
<glyph unicode="0" horiz-adv-x="585" d="M35 502v344q0 186 43 323q66 205 217 205q147 0 213 -207q45 -135 45 -321v-344q0 -188 -45 -324q-66 -203 -213 -203q-152 0 -217 205q-43 135 -43 322zM86 502q0 -152 35 -275q55 -184 172 -184t172 184q37 123 37 275v344q0 154 -37 276q-53 184 -172 185 q-119 0 -172 -185q-35 -123 -35 -276v-344z" />
<glyph unicode="1" horiz-adv-x="413" d="M76 979l207 344h45v-1323h-52v1196l-133 -217h-67z" />
<glyph unicode="2" horiz-adv-x="585" d="M43 0q0 369 201 612q37 43 141 168q90 109 90 236q0 262 -172 262q-195 0 -194 -410h-54q0 477 244 478q227 0 227 -336q0 -129 -98 -269q-94 -115 -186 -227q-139 -223 -144 -446h459v-68h-514z" />
<glyph unicode="3" horiz-adv-x="585" d="M27 432v35h51v-64q0 -131 41 -227q59 -131 176 -131q113 0 170 113q43 86 43 209q0 309 -195 309h-61v69h61q180 0 181 271q0 104 -39 174q-49 88 -148 88q-209 0 -209 -385h-51q0 453 256 453q129 0 193 -109q51 -86 51 -221q0 -238 -127 -303q139 -61 139 -346 q0 -147 -55 -254q-72 -136 -205 -136q-154 0 -223 164q-49 119 -49 291z" />
<glyph unicode="4" horiz-adv-x="585" d="M12 451l217 874h54l-199 -807h301v809l51 -6v-803h131v-67h-131v-451h-51v451h-373z" />
<glyph unicode="5" horiz-adv-x="585" d="M25 444h51q0 -399 215 -399q119 0 172 152q37 100 37 243q0 141 -41 248q-55 150 -176 150t-183 -197h-55l16 682h461v-68h-409l-11 -475q68 127 185 127q145 0 215 -174q51 -123 51 -291q0 -170 -51 -295q-68 -170 -213 -170q-264 0 -264 467z" />
<glyph unicode="6" horiz-adv-x="585" d="M47 414v20q0 14 2 17v462q0 156 45 269q66 156 203 155q135 0 199 -166q45 -115 45 -278h-52q0 135 -34 235q-51 147 -160 148q-109 0 -158 -141q-35 -98 -35 -228v-207q63 141 191 142q133 0 196 -160q47 -115 48 -268q0 -154 -48 -269q-63 -158 -198 -157 q-135 0 -199 157q-45 115 -45 269zM98 414q0 -127 35 -226q51 -141 158 -141q106 0 158 141q37 98 36 226q0 131 -39 233q-51 133 -155 133q-109 0 -158 -141q-35 -98 -35 -225z" />
<glyph unicode="7" horiz-adv-x="585" d="M51 1255v68h496l-322 -1323h-53l307 1255h-428z" />
<glyph unicode="8" horiz-adv-x="602" d="M29 379q0 285 155 350q-121 68 -121 270q0 346 238 347q242 0 242 -347q0 -199 -125 -270q160 -66 160 -354q0 -162 -56 -266q-71 -132 -221 -132q-272 0 -272 402zM80 377q0 -332 221 -332q225 0 225 332q0 311 -223 311t-223 -311zM115 997q0 -94 43 -161 q53 -80 145 -80q90 0 143 84q45 70 46 161q-1 277 -191 277q-186 0 -186 -281z" />
<glyph unicode="9" horiz-adv-x="585" d="M47 410h51q0 -147 37 -246q51 -135 156 -135q109 0 158 141q35 96 36 225v248q-63 -141 -190 -141q-135 0 -199 160q-45 113 -45 266q0 152 47 268q66 160 199 160t197 -160q47 -115 47 -268v-21q-2 -10 -2 -14v-502q0 -154 -47 -266q-66 -156 -201 -156q-139 0 -201 166 q-43 113 -43 275zM102 928q0 -127 35 -226q51 -139 158 -139q106 0 158 139q37 98 36 226q1 131 -38 233q-51 135 -156 135q-109 0 -158 -141q-35 -98 -35 -227z" />
<glyph unicode=":" horiz-adv-x="245" d="M98 33v129q0 37 25 37q27 0 27 -37v-129q0 -37 -27 -37q-25 0 -25 37zM98 786v129q0 37 25 37q27 0 27 -37v-129q0 -36 -27 -36q-25 0 -25 36z" />
<glyph unicode=";" horiz-adv-x="251" d="M80 -143l43 311q6 45 35 27q20 -10 14 -41l-43 -310q-4 -41 -37 -26q-12 8 -12 28v11zM119 786v129q0 37 24 37q27 0 27 -37v-129q0 -36 -27 -36q-25 0 -24 36z" />
<glyph unicode="&#x3c;" horiz-adv-x="536" d="M35 463v59l461 377v-78l-404 -329l404 -330v-78z" />
<glyph unicode="=" horiz-adv-x="632" d="M35 342v64h563v-64h-563zM35 578v63h563v-63h-563z" />
<glyph unicode="&#x3e;" horiz-adv-x="536" d="M35 84v78l401 330l-401 329v78l461 -377v-59z" />
<glyph unicode="?" d="M25 1040q25 381 241 381q115 0 174 -116q47 -92 47 -215q0 -145 -102 -343t-102 -337v-64h-52v51q0 199 101 367q57 98 78 156q27 74 26 170q0 102 -35 172q-43 92 -137 92q-172 0 -192 -371zM231 37v131q0 35 23 35q29 0 29 -35v-131q0 -37 -29 -37q-23 0 -23 37z" />
<glyph unicode="@" horiz-adv-x="843" d="M45 707q0 236 76 436q109 281 317 280q188 0 287 -229q74 -172 74 -377q0 -194 -66 -368q-59 -160 -137 -160q-53 0 -45 129q-68 -156 -182 -158q-109 -2 -158 139q-31 96 -31 228q0 201 53 348q66 178 195 182q117 2 162 -147l10 147h49l-49 -764v-16q0 -14 2 -15 q20 0 53 58q25 43 35 78q55 174 55 323q0 184 -65 336q-84 201 -238 201q-182 0 -274 -252q-68 -186 -68 -410q0 -221 68 -403q94 -250 272 -250q102 0 191 104q70 84 102 199h58q-37 -143 -121 -246q-104 -123 -224 -123q-215 0 -323 285q-78 207 -78 445zM227 633 q0 -109 23 -189q37 -125 121 -125q94 2 151 160q41 106 51 232q2 27 2 75q1 312 -153 308q-104 -2 -158 -183q-37 -129 -37 -278z" />
<glyph unicode="A" horiz-adv-x="638" d="M-14 0l313 1389h51l301 -1389h-53l-98 446h-359l-98 -446h-57zM158 514h327l-159 739z" />
<glyph unicode="B" horiz-adv-x="645" d="M35 0v1389h338q125 0 184 -127q45 -94 45 -232q0 -223 -133 -305q154 -63 154 -346q0 -152 -56 -252q-68 -127 -207 -127h-325zM86 68h287q106 0 159 110q41 84 41 199q0 125 -41 207q-52 106 -163 106h-283v-622zM86 758h285q96 0 143 100q35 76 35 182q0 281 -178 281 h-285v-563z" />
<glyph unicode="C" horiz-adv-x="720" d="M37 684q0 254 63 442q94 276 303 277q199 0 283 -250l-41 -53q-76 235 -241 235h-1q-178 0 -260 -252q-55 -170 -55 -391q0 -219 51 -387q80 -252 254 -252q158 0 246 240l39 -53q-94 -254 -285 -254q-205 0 -295 268q-61 182 -61 430z" />
<glyph unicode="D" horiz-adv-x="681" d="M43 0v1389h272q340 0 340 -697q0 -262 -65 -436q-96 -256 -311 -256h-236zM94 68h187q190 0 270 237q53 154 53 387q0 629 -289 629h-221v-1253z" />
<glyph unicode="E" horiz-adv-x="565" d="M43 0v1389h518v-68h-467v-563h414v-66h-414v-624h473v-68h-524z" />
<glyph unicode="F" horiz-adv-x="505" d="M43 0v1389h481v-68h-430v-563h369v-66h-369v-692h-51z" />
<glyph unicode="G" horiz-adv-x="759" d="M20 690q0 256 62 438q92 274 303 275q283 0 330 -469h-53q-43 401 -275 401q-182 0 -262 -252q-53 -166 -53 -391q0 -229 53 -391q82 -248 268 -248q147 0 225 185q57 135 58 305v53h-293v68h340q4 -57 4 -99q0 -206 -61 -358q-88 -221 -273 -221q-217 0 -311 266 q-61 178 -62 438z" />
<glyph unicode="H" horiz-adv-x="681" d="M43 0v1389h51v-631h496v631h51v-1389h-51v692h-496v-692h-51z" />
<glyph unicode="I" horiz-adv-x="135" d="M43 0v1389h51v-1389h-51z" />
<glyph unicode="J" horiz-adv-x="487" d="M4 319h51q10 -266 164 -266q113 0 150 127q20 66 20 228v981h53v-994q0 -409 -219 -409q-203 0 -219 333z" />
<glyph unicode="K" horiz-adv-x="671" d="M43 0v1389h51v-771l498 771h67l-385 -596l402 -793h-62l-376 741l-144 -229v-512h-51z" />
<glyph unicode="L" horiz-adv-x="505" d="M43 0v1389h51v-1321h430v-68h-481z" />
<glyph unicode="M" horiz-adv-x="821" d="M43 0v1389h61l306 -1262l309 1262h61v-1389h-51v1206l-295 -1206h-47l-293 1206v-1206h-51z" />
<glyph unicode="N" horiz-adv-x="681" d="M43 0v1389h55q166 -414 492 -1246v1246h51v-1389h-57l-490 1249v-1249h-51z" />
<glyph unicode="O" horiz-adv-x="759" d="M20 694q0 252 60 426q90 262 301 262q209 0 301 -262q61 -176 61 -426q0 -256 -63 -440q-94 -268 -299 -268q-211 0 -301 272q-59 178 -60 436zM72 694q0 -221 53 -389q80 -252 256 -252q180 0 258 252q51 162 51 389q0 231 -53 387q-78 233 -256 234q-180 0 -258 -242 q-51 -158 -51 -379z" />
<glyph unicode="P" horiz-adv-x="622" d="M43 0v1389h315q250 0 250 -390q0 -150 -55 -251q-68 -130 -205 -130h-254v-618h-51zM94 688h271q102 0 151 111q39 84 39 198q0 324 -190 324h-271v-633z" />
<glyph unicode="Q" horiz-adv-x="759" d="M20 692q0 254 60 428q90 262 301 262q209 0 301 -262q61 -176 61 -432q0 -552 -249 -678q33 -78 88 -78h108v-67h-108q-88 0 -140 127q-29 -8 -61 -8q-211 0 -301 272q-59 180 -60 436zM72 692q0 -272 71 -440q41 190 156 190q86 0 131 -110q37 -84 37 -180q0 -39 6 -78 q217 113 217 618q0 233 -53 389q-78 233 -256 234q-180 0 -258 -242q-51 -158 -51 -381zM184 176q80 -125 197 -125q23 0 45 6q-10 48 -10 97q0 72 -25 135q-31 88 -92 88q-55 0 -88 -78q-25 -57 -27 -123z" />
<glyph unicode="R" horiz-adv-x="645" d="M43 0v1389h328q239 0 239 -356q0 -273 -135 -357q125 -72 125 -330v-346h-51v340q0 295 -189 295h-266v-635h-51zM94 705h262q111 0 164 114q39 84 39 205q0 297 -186 297h-279v-616z" />
<glyph unicode="S" horiz-adv-x="645" d="M23 444v35h51v-26q0 -399 258 -400q119 0 178 97q49 78 49 202q0 193 -113 258q-16 10 -165 80q-109 49 -152 94q-86 92 -86 271q0 348 268 348q281 0 287 -426h-53q-4 164 -39 240q-53 118 -193 118h-2q-215 0 -215 -280q0 -141 64 -213q39 -43 137 -80 q180 -68 244 -146q71 -85 71 -265v-5q0 -145 -67 -246q-76 -114 -213 -114q-309 0 -309 458z" />
<glyph unicode="T" horiz-adv-x="546" d="M-14 1321v68h575v-68h-260v-1321h-53v1321h-262z" />
<glyph unicode="U" horiz-adv-x="665" d="M43 520v869h51v-867q0 -469 240 -469t239 461v875h52v-873q0 -530 -291 -530t-291 534z" />
<glyph unicode="V" horiz-adv-x="630" d="M-6 1389h53l272 -1256l267 1256h51l-293 -1389h-49z" />
<glyph unicode="W" horiz-adv-x="972" d="M-2 1389h51l262 -1254l150 744l-105 510h52l262 -1254l254 1254h51l-281 -1389h-49l-156 750l-153 -750h-47z" />
<glyph unicode="X" horiz-adv-x="606" d="M-20 0l294 715l-280 674h61l250 -605l252 605h59l-280 -674l291 -715h-58l-264 643l-266 -643h-59z" />
<glyph unicode="Y" horiz-adv-x="628" d="M-23 1389h60l276 -629l279 629h59l-309 -709v-680h-53v680z" />
<glyph unicode="Z" horiz-adv-x="628" d="M23 0v70l518 1251h-490v68h549v-68l-520 -1253h528v-68h-585z" />
<glyph unicode="[" horiz-adv-x="233" d="M86 -344v1847h150v-67h-97v-1712h97v-68h-150z" />
<glyph unicode="\" horiz-adv-x="350" d="M-27 1421h52l344 -1421h-52z" />
<glyph unicode="]" horiz-adv-x="233" d="M-2 -276h98v1712h-98v67h152l-5 -1847h-147v68z" />
<glyph unicode="^" horiz-adv-x="299" d="M41 1047l84 276h45l88 -276h-57l-54 176l-53 -176h-53z" />
<glyph unicode="_" d="M-16 -145h559v-99h-559v99z" />
<glyph unicode="`" horiz-adv-x="194" d="M18 1325q-12 25 2 41q8 12 19 12q14 0 24 -18l113 -227q4 -8 4 -19q0 -31 -24 -31q-13 1 -25 15z" />
<glyph unicode="a" horiz-adv-x="565" d="M14 498q0 180 43 317q63 209 207 209q139 0 201 -184v180h53v-1020h-53v172q-68 -195 -205 -195q-141 0 -205 205q-41 137 -41 316zM66 498q0 -156 32 -275q49 -178 162 -178q111 0 166 176q39 123 39 277q0 165 -35 282q-51 176 -170 176q-111 0 -162 -188 q-32 -119 -32 -261v-9z" />
<glyph unicode="b" horiz-adv-x="565" d="M43 0v1389h53v-547q66 190 199 190q143 0 207 -211q43 -137 43 -321q0 -186 -43 -320q-66 -200 -209 -200q-129 0 -197 196v-176h-53zM96 496q0 -154 37 -275q55 -174 166 -174t160 180q35 119 35 275q0 157 -35 280q-51 182 -160 183q-203 0 -203 -469z" />
<glyph unicode="c" d="M18 481q0 193 45 332q68 211 224 211q96 0 155 -106q43 -76 60 -189l-49 -47q-33 274 -168 274q-125 0 -181 -190q-34 -120 -34 -276v-9q0 -147 34 -262q53 -174 170 -174q156 0 185 299l49 -43q-16 -125 -59 -207q-66 -117 -175 -117q-145 0 -211 195q-45 133 -45 309z " />
<glyph unicode="d" horiz-adv-x="565" d="M14 502q0 180 43 319q63 211 207 211q139 0 201 -186v543h53v-1389h-53v174q-68 -197 -205 -197q-141 0 -205 207q-41 137 -41 318zM66 502q0 -158 32 -277q49 -180 162 -180q111 0 166 178q39 125 39 279q0 165 -35 284q-51 178 -170 179q-111 0 -162 -191 q-32 -119 -32 -263v-9z" />
<glyph unicode="e" d="M12 498q0 182 43 319q66 207 211 207t209 -186q45 -127 45 -301v-58l-457 -2q4 -432 199 -432q141 0 191 250h53q-49 -317 -246 -318q-248 0 -248 521zM63 545h400q0 139 -35 248q-53 163 -161 163h-1q-109 0 -164 -163q-37 -109 -39 -248z" />
<glyph unicode="f" horiz-adv-x="268" d="M16 831v70h72v84q0 379 256 379v-66q-205 0 -205 -313v-84h113v-70h-113v-833h-51v833h-72z" />
<glyph unicode="g" horiz-adv-x="546" d="M16 512q0 180 41 311q63 201 207 201q125 0 191 -182v157h53v-958q0 -408 -242 -408q-213 0 -223 338h53q10 -270 172 -270q186 0 187 342v139q-68 -174 -197 -174q-139 0 -201 199q-41 131 -41 305zM68 514q0 -143 30 -260q49 -178 158 -178q113 0 164 174 q35 113 35 258q0 147 -37 270q-53 178 -156 178q-109 0 -160 -180q-34 -118 -34 -254v-8z" />
<glyph unicode="h" d="M43 0v1389h53v-508q53 151 176 151h2q117 0 170 -127q39 -92 39 -223v-682h-51v662q0 109 -29 188q-41 115 -127 115q-102 0 -149 -160q-31 -109 -31 -240v-565h-53z" />
<glyph unicode="i" horiz-adv-x="137" d="M43 0v1008h53v-1008h-53zM43 1237v139q6 31 25 31q14 0 28 -31v-139q-12 -29 -28 -29q-18 0 -25 29z" />
<glyph unicode="j" horiz-adv-x="137" d="M-166 -301q207 0 207 346v961h51v-963q0 -410 -258 -410v66zM43 1237v139q6 31 25 31q14 0 28 -31v-139q-12 -29 -28 -29q-18 0 -25 29z" />
<glyph unicode="k" horiz-adv-x="534" d="M43 0v1389h53v-887l340 508l76 -4l-268 -388l282 -618h-63l-256 563l-111 -164v-399h-53z" />
<glyph unicode="l" horiz-adv-x="137" d="M43 0v1389h53v-1389h-53z" />
<glyph unicode="m" horiz-adv-x="819" d="M43 0v999h53v-125q53 150 164 150q119 0 160 -170q47 170 172 170q184 0 184 -346v-678h-51v657q0 299 -131 299q-88 0 -129 -125q-29 -86 -29 -202v-629h-51v657q0 299 -135 299q-86 0 -127 -157q-27 -109 -27 -238v-561h-53z" />
<glyph unicode="n" d="M43 0v999h53v-125q53 150 178 150q117 0 170 -127q39 -90 39 -219v-678h-51v657q0 109 -29 187q-41 112 -125 112h-2q-102 0 -149 -157q-31 -106 -31 -238v-561h-53z" />
<glyph unicode="o" horiz-adv-x="546" d="M14 500q0 182 45 319q68 205 215 205q150 0 215 -205q45 -135 46 -319q0 -184 -48 -324q-68 -199 -215 -199q-145 0 -213 205q-45 137 -45 318zM66 500q0 -147 36 -273q55 -182 172 -182q115 0 170 176q39 121 39 279q0 161 -37 280q-53 176 -172 176t-174 -182 q-34 -118 -34 -266v-8z" />
<glyph unicode="p" horiz-adv-x="565" d="M43 -344v1343h53v-163q63 188 197 188q145 0 209 -205q43 -135 43 -319q0 -188 -43 -324q-64 -205 -207 -205q-139 0 -199 183v-498h-53zM96 504q0 -465 203 -465q111 0 160 182q35 119 35 277q0 155 -35 278q-51 180 -160 180q-115 0 -168 -182q-35 -123 -35 -270z" />
<glyph unicode="q" horiz-adv-x="565" d="M14 500q0 178 43 317q63 207 205 207q139 0 203 -188v163h51v-1343h-51v498q-63 -182 -207 -183q-137 0 -201 211q-43 143 -43 318zM66 498q0 -145 32 -271q51 -188 160 -188q123 0 174 182q33 115 33 277q0 155 -39 280q-55 178 -168 178q-109 0 -160 -188 q-32 -119 -32 -261v-9z" />
<glyph unicode="r" horiz-adv-x="319" d="M43 0v999h53v-165q61 190 213 190v-68q-133 0 -184 -227q-29 -137 -29 -330v-399h-53z" />
<glyph unicode="s" horiz-adv-x="487" d="M27 362h53q0 -317 170 -317q80 0 119 72q30 55 30 134v5q0 143 -106 193q-6 4 -96 32q-150 47 -150 260q0 102 39 183q51 102 147 102q215 0 218 -344h-56q0 272 -157 272q-70 0 -109 -77q-27 -59 -27 -136q0 -141 101 -180q25 -10 104 -39q145 -53 146 -266 q0 -283 -203 -283q-223 0 -223 389z" />
<glyph unicode="t" horiz-adv-x="264" d="M6 881v69h100v307h52v-307h102v-69h-102v-881h-49l-3 881h-100z" />
<glyph unicode="u" d="M43 346v653h53v-651q0 -303 154 -303q182 0 182 412v542h51v-999h-51v127q-55 -150 -182 -150q-117 0 -170 138q-37 96 -37 231z" />
<glyph unicode="v" horiz-adv-x="473" d="M-10 999h57l199 -880l184 880h53l-213 -999h-49z" />
<glyph unicode="w" horiz-adv-x="774" d="M10 999h56l188 -876l108 559l-69 317h57l189 -876l172 876h55l-203 -999h-51l-121 553l-112 -553h-50z" />
<glyph unicode="x" horiz-adv-x="468" d="M-18 0l223 518l-203 481h59l172 -413l177 413h59l-205 -481l223 -518h-59l-195 449l-192 -449h-59z" />
<glyph unicode="y" d="M20 -29h52q10 -270 172 -270q188 0 188 342v78q-55 -152 -182 -152q-117 0 -170 140q-37 96 -37 233v657h53v-655q0 -305 154 -305q182 0 182 414v546h51v-958q1 -408 -241 -408q-215 0 -222 338z" />
<glyph unicode="z" horiz-adv-x="475" d="M14 0v66l371 866h-342v67h403v-63l-374 -868h391v-68h-449z" />
<glyph unicode="{" horiz-adv-x="350" d="M76 557v47q23 23 57 66q18 43 19 166v460q0 207 92 207h26v-67h-24q-43 0 -43 -189v-416q0 -131 -21 -184q-10 -31 -49 -67q39 -37 49 -66q20 -51 21 -186v-414q0 -190 43 -190h24v-68h-26q-92 0 -92 207v461q0 143 -25 180q-12 16 -51 53z" />
<glyph unicode="|" horiz-adv-x="233" d="M92 -66v1512h51v-1512h-51z" />
<glyph unicode="}" horiz-adv-x="350" d="M76 -276h24q43 0 43 190v414q0 135 19 186q10 29 49 66q-39 37 -49 67q-18 53 -19 184v416q0 188 -43 189h-24v67h24q94 0 95 -207v-460q0 -131 20 -172q14 -25 55 -60v-47q-37 -33 -51 -53q-25 -41 -24 -180v-461q0 -207 -95 -207h-24v68z" />
<glyph unicode="~" horiz-adv-x="550" d="M41 717q6 76 33 135q35 78 96 78q29 0 114 -68.5t97 -68.5q55 0 65 141h64q-7 -68 -23 -115q-35 -100 -106 -100q-29 0 -115 67.5t-98 67.5q-53 0 -64 -137h-63z" />
<glyph unicode="&#xa0;" />
<glyph unicode="&#xa1;" horiz-adv-x="194" d="M72 -195v1043h51v-1043h-51zM74 1026v131q0 37 24 37q27 0 27 -37v-131q0 -35 -27 -35q-25 0 -24 35z" />
<glyph unicode="&#xa2;" d="M18 483q0 193 45 332q68 211 224 211q33 0 63 -14l29 116h51l-35 -145q82 -76 107 -252l-49 -47q-20 164 -74 227l-199 -827q41 -39 94 -39q156 0 185 299l49 -43q-16 -125 -59 -207q-66 -119 -175 -119q-61 0 -112 39l-21 -88h-53l35 133q-104 139 -105 424zM70 483 q0 -227 71 -346l193 809q-22 12 -49 12q-125 0 -181 -190q-35 -125 -34 -285z" />
<glyph unicode="&#xa4;" horiz-adv-x="585" d="M49 440l105 181q-35 74 -35 172q0 100 35 176l-105 182l33 53l104 -182q43 51 97 51q55 0 96 -51l104 182l33 -53l-104 -182q39 -74 39 -174t-37 -177l102 -178l-33 -53l-102 178q-43 -53 -98 -53t-97 55l-104 -180zM168 795q0 -68 22 -131q33 -86 93 -86q61 0 92 84 q25 61 24 131q1 76 -26 139q-31 76 -90 76t-93 -82q-23 -63 -22 -131z" />
<glyph unicode="&#xa5;" horiz-adv-x="647" d="M-12 1389h59l277 -629l278 629h60l-310 -709v-98h213v-70h-213v-186h213v-68h-213v-258h-53v258h-213v68h213v186h-213v70h213v98z" />
<glyph unicode="&#xa6;" horiz-adv-x="233" d="M92 -47v663h51v-663h-51zM92 762v663h51v-663h-51z" />
<glyph unicode="&#xa7;" horiz-adv-x="585" d="M86 121h53q0 -274 156 -275q139 0 139 220q0 117 -65 161q-10 10 -174 78q-119 76 -109 268q8 190 113 244q-98 66 -99 230q0 106 37 184q51 102 148 102q213 0 215 -344h-51q0 276 -158 277q-74 0 -111 -78q-29 -59 -28 -141q0 -109 57 -154q20 -18 125 -59 q55 -12 90 -52q80 -68 80 -223q0 -209 -119 -266q100 -66 100 -227q0 -104 -39 -185q-49 -102 -145 -102q-215 0 -215 342zM139 582q0 -88 35 -156q45 -82 127 -82q147 0 148 215q-23 209 -166 209t-144 -186z" />
<glyph unicode="&#xa8;" horiz-adv-x="215" d="M25 1153v94q0 31 24 31q27 0 27 -31v-94q0 -33 -27 -33q-25 0 -24 33zM141 1153v94q0 31 25 31q27 0 27 -31v-94q0 -33 -27 -33q-25 0 -25 33z" />
<glyph unicode="&#xa9;" horiz-adv-x="561" d="M29 928q0 156 53 282q70 166 203 166t202 -166q55 -127 56 -280q0 -154 -56 -281q-69 -166 -200 -166q-137 0 -207 166q-51 125 -51 279zM82 930q0 -127 43 -236q57 -141 160 -141q102 0 159 139q45 106 45 236q0 124 -45 235q-55 141 -157 142q-104 0 -162 -140 q-43 -106 -43 -235zM133 924q0 100 29 174q41 104 129 104q123 0 139 -217h-55q-14 145 -86 145q-55 0 -84 -77q-18 -57 -19 -129q0 -76 19 -136q31 -82 90 -81q57 0 80 155h57q-33 -227 -137 -227q-90 0 -133 108q-29 76 -29 181z" />
<glyph unicode="&#xaa;" horiz-adv-x="378" d="M29 1024q0 117 28 203q41 121 133 121q68 0 109 -70v68h53v-631h-53v59q-43 -74 -111 -74q-90 0 -133 123q-27 84 -26 201zM82 1024q0 -254 106 -254q59 0 88 100q23 70 23 154q0 254 -111 254q-61 0 -90 -104q-16 -68 -16 -150z" />
<glyph unicode="&#xab;" horiz-adv-x="393" d="M57 537v47l181 252v-95l-127 -180l127 -182v-88zM174 537v47l180 252v-95l-127 -180l127 -182v-88z" />
<glyph unicode="&#xac;" horiz-adv-x="604" d="M35 555v63h524v-344h-53v281h-471z" />
<glyph unicode="&#xad;" horiz-adv-x="350" d="M37 520v41h289v-41h-289z" />
<glyph unicode="&#xae;" horiz-adv-x="544" d="M18 928q0 156 54 282q70 166 202 166q133 0 203 -166q55 -127 55 -280q0 -146 -51 -273q-70 -174 -207 -174q-135 0 -204 168q-51 125 -52 277zM72 930q0 -127 43 -236q57 -141 159 -141q106 0 164 145q41 106 41 230t-45 235q-55 141 -160 142q-106 0 -163 -146 q-39 -106 -39 -229zM172 653v541h129q100 0 100 -152q1 -86 -30 -127q29 -37 28 -114v-148h-55v146q0 80 -45 80h-74v-226h-53zM225 952h72q51 0 51 88q0 80 -47 80h-76v-168z" />
<glyph unicode="&#xaf;" horiz-adv-x="313" d="M20 1223v39h277v-39h-277z" />
<glyph unicode="&#xb0;" horiz-adv-x="421" d="M45 1065q0 90 35 172q45 104 129 104q88 0 133 -102q35 -78 35 -172q0 -96 -37 -176q-45 -103 -129 -103t-131 105q-35 80 -35 172zM96 1067q0 -70 23 -131q31 -84 92 -84t92 84q25 59 25 129q0 72 -27 135q-33 78 -90 78q-61 0 -92 -82q-23 -59 -23 -129z" />
<glyph unicode="&#xb1;" horiz-adv-x="632" d="M98 479v68h193v340h51v-340h193v-68h-193v-346h-51v346h-193zM100 -6v69h437v-69h-437z" />
<glyph unicode="&#xb2;" horiz-adv-x="393" d="M23 524q0 242 139 402l84 94q53 59 53 123q0 141 -100 141q-115 0 -115 -242h-55q0 313 166 314q160 0 159 -217q0 -82 -69 -170q-63 -78 -129 -156q-72 -102 -78 -219h295v-70h-350z" />
<glyph unicode="&#xb3;" horiz-adv-x="428" d="M31 799v37h55v-54q0 -74 27 -127q35 -68 102 -67q66 0 100 57q29 47 29 117q0 170 -117 170h-49v69h51q106 0 107 144q0 55 -28.5 97t-84.5 42q-123 0 -123 -229h-55q0 301 178 301q84 0 129 -68q39 -59 39 -143q0 -131 -67 -178q76 -55 75 -205q0 -98 -41 -164 q-47 -82 -139 -82q-104 0 -153 98q-35 74 -35 185z" />
<glyph unicode="&#xb4;" horiz-adv-x="212" d="M27 1100q-8 18 0 33l112 227q8 18 25 18q27 0 26 -32q0 -10 -4 -21l-114 -225q-8 -16 -23 -17q-16 0 -22 17z" />
<glyph unicode="&#xb5;" d="M43 -350v1349h53v-544q0 -416 178 -416q158 0 158 305v655h51v-657q0 -225 -86 -317q-16 -16 -16 -56q0 -86 82 -86v-73q-76 0 -111 53q-29 43 -28 100v14q-25 -8 -50 -8q-125 0 -178 150v-469h-53z" />
<glyph unicode="&#xb6;" horiz-adv-x="497" d="M47 946q0 154 53 279q72 166 205 166q6 0 10 -2h138v-1661h-54v1593h-55v-1593h-51v772q-127 -4 -195 168q-51 129 -51 278z" />
<glyph unicode="&#xb7;" horiz-adv-x="208" d="M94 608v111q0 33 25 33q27 0 26 -33v-111q1 -35 -26 -35q-25 0 -25 35z" />
<glyph unicode="&#xb8;" horiz-adv-x="260" d="M14 -317l21 63q57 -39 86 -39q66 0 65 84q0 53 -47 62q-25 4 -51 -23v43l6 145h53l-2 -102q98 0 99 -133q0 -139 -121 -139q-41 0 -109 39z" />
<glyph unicode="&#xb9;" horiz-adv-x="288" d="M2 1104l178 233h45v-805h-55v685l-88 -113h-80z" />
<glyph unicode="&#xba;" horiz-adv-x="413" d="M33 1030q0 115 30 197q45 117 146 116q98 0 143 -118q33 -82 33 -195q0 -119 -35 -199q-45 -114 -145 -114q-96 0 -142 119q-31 84 -30 194zM82 1030q0 -90 22 -158q33 -94 103 -94t104 94q25 70 25 158t-27 160q-35 92 -102 92q-68 0 -103 -96q-23 -70 -22 -156z" />
<glyph unicode="&#xbb;" horiz-adv-x="382" d="M57 291v88l125 182l-125 180v95l181 -252v-47zM174 291v88l123 182l-123 180v95l180 -252v-47z" />
<glyph unicode="&#xbc;" horiz-adv-x="819" d="M31 1108l168 227h45v-809h-51v699l-91 -117h-71zM182 0l342 1421h51l-339 -1421h-54zM362 274l160 553h53l-141 -491h199v493l49 -4v-489h92v-62h-92v-274h-49v274h-271z" />
<glyph unicode="&#xbd;" horiz-adv-x="804" d="M18 1108l170 227h45v-809h-51v699l-90 -117h-74zM172 0l342 1421h51l-342 -1421h-51zM424 0q4 238 133 389q47 53 92 107q53 70 53 129q0 150 -102 149q-117 0 -117 -250h-49q0 311 162 312q156 0 156 -215q0 -94 -66 -168q-102 -117 -141 -179q-63 -102 -68 -213h295 v-61h-348z" />
<glyph unicode="&#xbe;" horiz-adv-x="909" d="M45 793v32h49v-51q0 -74 27 -129q37 -72 106 -72q68 0 103 62q29 49 28 121q0 176 -118 176h-50v63h50q111 0 110 148q0 147 -114 147q-127 0 -130 -231h-49q4 295 176 295q166 0 166 -211q0 -129 -73 -182q84 -55 84 -205q0 -96 -43 -164q-50 -80 -138 -80 q-184 0 -184 281zM274 0l342 1421h52l-342 -1421h-52zM453 274l161 553h56l-146 -491h199v493l51 -4v-489h92v-62h-92v-274h-51v274h-270z" />
<glyph unicode="&#xbf;" d="M27 139q0 125 102 343t102 337v64h54v-54q0 -195 -105 -366q-57 -98 -78 -154q-25 -74 -24 -170q0 -266 170 -266q174 0 190 375l49 -62q-26 -381 -239 -381q-119 0 -178 117q-43 88 -43 217zM233 1059v131q0 37 23 37q29 0 29 -37v-131q0 -35 -29 -35q-23 0 -23 35z" />
<glyph unicode="&#xc0;" horiz-adv-x="677" d="M6 0l313 1395h52l301 -1395h-54l-98 449h-358l-101 -449h-55zM176 518h330l-160 739zM258 1724q0 35 27 35q14 0 22 -18l113 -248q4 -12 4 -23q0 -31 -25 -30q-14 0 -24 16l-113 248q-4 10 -4 20z" />
<glyph unicode="&#xc1;" horiz-adv-x="677" d="M6 0l313 1395h52l301 -1395h-54l-98 449h-358l-101 -449h-55zM176 518h330l-160 739zM258 1475q0 10 4 22l115 248q12 25 22 24q10 0 21 -20q10 -18 0 -41l-113 -248q-8 -18 -22 -18q-27 0 -27 33z" />
<glyph unicode="&#xc2;" horiz-adv-x="677" d="M6 0l313 1395h52l301 -1395h-54l-98 449h-358l-101 -449h-55zM176 518h330l-160 739zM211 1434l108 301h41l113 -301h-57l-76 202l-76 -202h-53z" />
<glyph unicode="&#xc3;" horiz-adv-x="677" d="M6 0l313 1393h52l301 -1393h-54l-98 449h-358l-101 -449h-55zM176 516h330l-160 741zM197 1493q0 49 18 92q25 55 68 55q16 0 72.5 -55t60.5 -55q14 0 26 37q8 29 11 100l49 -55q-5 -49 -19 -88q-25 -61 -67 -62q-18 0 -74.5 55.5t-60.5 55.5q-29 0 -39 -139z" />
<glyph unicode="&#xc4;" horiz-adv-x="677" d="M6 0l313 1393h52l301 -1393h-54l-98 449h-358l-101 -449h-55zM176 516h330l-160 741zM258 1489v110q0 37 27 37t26 -37v-110q1 -37 -26 -37t-27 37zM375 1489v110q0 37 24 37q27 0 27 -37v-110q0 -37 -27 -37q-25 0 -24 37z" />
<glyph unicode="&#xc5;" horiz-adv-x="677" d="M6 0l313 1395h52l301 -1395h-54l-98 449h-358l-101 -449h-55zM176 518h330l-160 742zM248 1626q0 55 18 100q25 61 74 62q94 0 94 -162t-94 -162q-49 0 -74 60q-18 47 -18 102zM301 1626q0 -90 39 -90q43 0 43 90t-43 90q-39 0 -39 -90z" />
<glyph unicode="&#xc6;" horiz-adv-x="1081" d="M-35 0l610 1389h472v-68h-416v-561h45v-2h317v-66h-362v-624h420v-68h-473v692h-252l-303 -692h-58zM356 760h222v497z" />
<glyph unicode="&#xc7;" horiz-adv-x="720" d="M37 682q0 256 63 442q94 279 303 279q199 0 283 -252l-41 -53q-76 238 -242 237q-178 0 -260 -254q-55 -170 -55 -391t51 -389q80 -252 254 -252q158 0 246 240l39 -53q-94 -256 -285 -256q-205 0 -295 270q-61 182 -61 432zM266 -315l21 67q57 -41 86 -41q66 0 65 88 q0 57 -47 66q-25 4 -51 -23v47l6 154h53l-2 -109q98 0 99 -143q0 -147 -121 -147q-41 0 -109 41z" />
<glyph unicode="&#xc8;" horiz-adv-x="565" d="M43 0v1395h518v-68h-467v-567h414v-66h-414v-626h473v-68h-524zM203 1683q-12 25 4 43q6 12 16 13q16 0 25 -17l114 -247q10 -25 -2 -43q-25 -31 -43 6z" />
<glyph unicode="&#xc9;" horiz-adv-x="565" d="M43 0v1395h518v-68h-467v-567h414v-66h-414v-626h473v-68h-524zM199 1456q0 8 4 19l114 247q8 16 23 17q27 0 27 -35q0 -10 -5 -21l-112 -245q-8 -18 -23 -19q-29 0 -28 37z" />
<glyph unicode="&#xca;" horiz-adv-x="565" d="M43 0v1395h518v-68h-467v-567h414v-66h-414v-626h473v-68h-524zM152 1454l108 301h43l113 -301h-60l-75 203l-76 -203h-53z" />
<glyph unicode="&#xcb;" horiz-adv-x="565" d="M43 0v1393h518v-68h-467v-565h414v-66h-414v-626h473v-68h-524zM201 1505v111q0 37 24 37q27 0 27 -37v-111q0 -37 -27 -37q-25 0 -24 37zM315 1505v111q0 37 27 37q25 0 25 -37v-111q0 -37 -25 -37q-27 0 -27 37z" />
<glyph unicode="&#xcc;" horiz-adv-x="135" d="M-16 1737q0 35 26 35q14 0 23 -19l114 -248q6 -16 0 -35q-6 -20 -22 -20t-25 18l-112 246q-4 10 -4 23zM43 0v1395h51v-1395h-51z" />
<glyph unicode="&#xcd;" horiz-adv-x="135" d="M-12 1497l112 248q8 18 25 18q12 0 20 -14q12 -20 2 -41l-114 -248q-18 -37 -43 -6q-12 18 -2 43zM43 0v1395h51v-1395h-51z" />
<glyph unicode="&#xce;" horiz-adv-x="135" d="M-66 1446l111 301h41l113 -301h-58l-75 203l-76 -203h-56zM43 0v1395h51v-1395h-51z" />
<glyph unicode="&#xcf;" horiz-adv-x="135" d="M-18 1522v110q0 35 28 35q23 0 25 -35l2 -110q0 -39 -27 -39q-29 0 -28 39zM43 0v1393h51v-1393h-51zM100 1522v110q0 35 25 35t27 -35l2 -110q0 -39 -29 -39q-25 0 -25 39z" />
<glyph unicode="&#xd0;" horiz-adv-x="681" d="M6 662v69h37v658h272q340 0 340 -697q0 -262 -65 -436q-96 -256 -311 -256h-236v662h-37zM94 68h187q190 0 270 237q53 154 53 387q0 629 -289 629h-221v-590h199v-69h-199v-594z" />
<glyph unicode="&#xd1;" horiz-adv-x="681" d="M43 0v1393h55q166 -416 492 -1250v1250h51v-1393h-57l-490 1253v-1253h-51zM190 1481q0 47 19 92q25 55 65 55q18 0 75 -55t61 -55q12 0 24 35.5t12 101.5l48 -53q-3 -46 -19 -89q-23 -63 -65 -63q-20 0 -77 55.5t-61 55.5q-14 0 -23 -34t-9 -110z" />
<glyph unicode="&#xd2;" horiz-adv-x="759" d="M20 696q0 256 60 430q90 262 301 263q209 0 301 -263q61 -176 61 -430q0 -256 -63 -440q-94 -270 -299 -270q-211 0 -301 272q-59 180 -60 438zM72 696q0 -221 53 -389q80 -254 256 -254q180 0 258 252q51 164 51 391q0 233 -53 391q-78 233 -256 234q-180 0 -258 -242 q-51 -160 -51 -383zM297 1733q0 35 25 34q14 0 24 -18l115 -248q6 -16 0 -35q-7 -20 -23 -20q-14 0 -22 18l-115 246q-4 12 -4 23z" />
<glyph unicode="&#xd3;" horiz-adv-x="759" d="M20 698q0 254 60 428q90 262 301 263q209 0 301 -263q61 -176 61 -428q0 -258 -63 -442q-94 -270 -299 -270q-211 0 -301 272q-59 180 -60 440zM72 698q0 -223 53 -391q80 -254 256 -254q180 0 258 252q51 164 51 393q0 231 -53 389q-78 233 -256 234q-180 0 -258 -242 q-51 -160 -51 -381zM299 1477q-4 16 2 32l113 248q18 39 45 6q14 -20 2 -45l-117 -248q-10 -14 -22 -14q-18 0 -23 21z" />
<glyph unicode="&#xd4;" horiz-adv-x="759" d="M20 698q0 254 60 428q90 262 301 263q209 0 301 -263q61 -176 61 -428q0 -258 -63 -442q-94 -270 -299 -270q-211 0 -301 272q-59 180 -60 440zM72 698q0 -223 53 -391q80 -254 256 -254q180 0 258 252q51 164 51 393q0 231 -53 389q-78 233 -256 234q-180 0 -258 -242 q-51 -160 -51 -381zM248 1470l108 299h43l113 -299h-57l-76 201l-76 -201h-55z" />
<glyph unicode="&#xd5;" horiz-adv-x="759" d="M20 696q0 254 60 428q90 264 301 265q209 0 301 -265q61 -176 61 -428q0 -256 -63 -440q-94 -270 -299 -270q-211 0 -301 272q-59 180 -60 438zM72 696q0 -221 53 -389q80 -254 256 -254q180 0 258 252q51 164 51 391q0 233 -53 389q-78 233 -256 234q-180 0 -258 -242 q-51 -158 -51 -381zM231 1526q0 45 19 90q25 55 65 55q18 0 74.5 -55t61.5 -55q12 0 24 35.5t12 105.5l48 -60q-5 -49 -19 -88q-25 -61 -65 -61q-18 0 -76 55.5t-62 55.5q-31 0 -39 -146z" />
<glyph unicode="&#xd6;" horiz-adv-x="759" d="M20 696q0 254 60 428q90 262 301 262q209 0 301 -262q61 -176 61 -428q0 -256 -63 -440q-94 -270 -299 -270q-211 0 -301 272q-59 180 -60 438zM72 696q0 -221 53 -389q80 -254 256 -254q180 0 258 252q51 164 51 391q0 233 -53 389q-78 233 -256 234q-180 0 -258 -242 q-51 -158 -51 -381zM297 1522v110q0 35 25 35t26 -35l2 -110q1 -39 -28 -39q-25 0 -25 39zM414 1522v110q0 35 24 35q27 0 27 -35v-110q0 -39 -27 -39q-25 0 -24 39z" />
<glyph unicode="&#xd7;" horiz-adv-x="491" d="M80 279l133 237l-133 234l31 59l135 -238l135 238l35 -57l-137 -236l137 -244l-33 -55l-137 240l-140 -238z" />
<glyph unicode="&#xd8;" horiz-adv-x="759" d="M20 694q0 254 60 428q90 262 301 262q74 0 133 -34l23 92h51l-29 -125q184 -166 184 -623q0 -248 -61 -430q-92 -279 -301 -278q-76 0 -135 37l-21 -82h-51l27 118q-53 49 -92 136q-88 193 -89 499zM72 694q0 -279 82 -456q31 -68 65 -107l277 1153q-52 31 -115 31 q-180 0 -258 -240q-51 -160 -51 -381zM262 92q51 -39 119 -39q180 0 258 250q51 164 51 391q1 406 -149 553z" />
<glyph unicode="&#xd9;" horiz-adv-x="665" d="M43 522v873h51v-871q0 -471 240 -471t239 463v879h52v-877q0 -532 -291 -532t-291 536zM250 1716q0 35 26 35q14 0 23 -18l115 -246q10 -22 -4 -45q-16 -31 -43 4l-113 250q-4 10 -4 20z" />
<glyph unicode="&#xda;" horiz-adv-x="665" d="M43 522v873h51v-871q0 -471 240 -471t239 463v879h52v-877q0 -532 -291 -532t-291 536zM250 1468q0 10 4 23l113 246q8 18 24 18q12 0 21 -14q12 -20 2 -41l-115 -248q-10 -16 -25 -16q-25 0 -24 32z" />
<glyph unicode="&#xdb;" horiz-adv-x="665" d="M43 522v873h51v-871q0 -471 240 -471t239 463v879h52v-877q0 -532 -291 -532t-291 536zM201 1450l110 301h41l113 -301h-57l-76 203l-76 -203h-55z" />
<glyph unicode="&#xdc;" horiz-adv-x="665" d="M43 522v871h51v-869q0 -471 240 -471t239 463v877h52v-875q0 -532 -291 -532t-291 536zM250 1522v110q0 35 24 35q29 0 29 -35v-110q0 -39 -29 -39q-25 0 -24 39zM367 1522v110q0 35 24 35q27 0 27 -35v-110q0 -39 -27 -39q-25 0 -24 39z" />
<glyph unicode="&#xdd;" horiz-adv-x="659" d="M-6 1395h59l277 -631l278 631h60l-310 -713v-682h-53v682zM246 1479q0 8 4 18l115 248q8 18 24 18q12 0 21 -14q12 -20 2 -41l-115 -248q-8 -18 -23 -18q-29 0 -28 37z" />
<glyph unicode="&#xde;" horiz-adv-x="425" d="M43 0v1389h53v-310h142q150 0 149 -368q1 -361 -151 -361h-140v-350h-53zM96 416h142q98 2 98 295q0 301 -100 301h-140v-596z" />
<glyph unicode="&#xdf;" horiz-adv-x="505" d="M8 817v70h35q0 59 4 217q6 309 191 309q221 0 215 -295q-2 -213 -119 -268q78 -41 123 -199q37 -121 37 -237q0 -475 -295 -475v67q244 0 243 408q0 147 -47 258q-59 145 -196 145v68q104 0 141 30q61 49 61 195q0 119 -28 168q-35 68 -137 68q-139 0 -140 -295v-1053 h-53v819h-35z" />
<glyph unicode="&#xe0;" horiz-adv-x="552" d="M14 502q0 180 43 319q63 211 207 211q139 0 201 -186v182h53v-1028h-53v174q-68 -197 -205 -197q-141 0 -205 207q-41 137 -41 318zM66 502q0 -158 32 -277q49 -180 162 -180q111 0 166 178q39 125 39 279q0 165 -35 284q-51 176 -170 177q-111 0 -162 -189 q-33 -125 -32 -272zM174 1321q-10 25 4 43q8 20 19 20q10 0 22 -24l115 -248q6 -14 0 -33q-5 -20 -21 -20q-14 0 -26 16z" />
<glyph unicode="&#xe1;" horiz-adv-x="552" d="M27 502q0 184 41 321q63 209 208 209q139 0 201 -186v182h51v-1028h-51v174q-68 -197 -205 -197q-141 0 -204 207q-41 137 -41 318zM78 502q0 -158 33 -277q49 -180 161 -180q111 0 166 184q39 127 39 273q0 165 -35 284q-51 176 -170 177q-111 0 -161 -189 q-33 -125 -33 -272zM184 1079q-4 18 2 33l113 248q8 18 25 18q12 0 21 -16t1 -41l-115 -244q-8 -18 -24 -18q-18 0 -23 20z" />
<glyph unicode="&#xe2;" horiz-adv-x="552" d="M27 502q0 184 41 321q63 209 208 209q139 0 201 -186v182h51v-1028h-51v174q-68 -197 -205 -197q-141 0 -204 207q-41 137 -41 318zM78 502q0 -158 33 -277q49 -180 161 -180q111 0 166 184q39 127 39 273q0 165 -35 284q-51 176 -170 177q-111 0 -161 -189 q-33 -123 -33 -272zM133 1081l109 299h43l112 -299h-57l-76 203l-76 -203h-55z" />
<glyph unicode="&#xe3;" horiz-adv-x="552" d="M27 500q0 184 41 321q63 209 208 209q139 0 201 -186v182h51v-1026h-51v174q-68 -197 -205 -197q-141 0 -204 207q-41 137 -41 316zM78 500q0 -156 33 -275q49 -180 161 -180q111 0 166 184q39 127 39 271q0 167 -35 284q-51 178 -170 179q-111 0 -161 -189 q-33 -125 -33 -274zM117 1137q0 47 18 90q25 55 66 55q18 0 74.5 -55.5t58.5 -55.5q14 0 26 37q8 27 15 101l45 -56q-5 -49 -19 -88q-25 -61 -67 -61q-18 0 -75.5 55t-59.5 55q-31 0 -39 -143z" />
<glyph unicode="&#xe4;" horiz-adv-x="552" d="M27 500q0 184 41 321q63 209 208 209q139 0 201 -186v182h51v-1026h-51v174q-68 -197 -205 -197q-141 0 -204 207q-41 137 -41 316zM78 500q0 -156 33 -275q49 -180 161 -180q111 0 166 184q39 127 39 271q0 167 -35 284q-51 178 -170 179q-111 0 -161 -189 q-33 -125 -33 -274zM195 1133v110q0 35 24 35q29 0 29 -35v-110q0 -39 -29 -39q-25 0 -24 39zM311 1133v110q0 35 25 35q27 0 26 -35v-110q1 -39 -26 -39q-25 0 -25 39z" />
<glyph unicode="&#xe5;" horiz-adv-x="552" d="M27 502q0 184 41 321q63 209 208 209q139 0 201 -186v182h51v-1028h-51v174q-68 -197 -205 -197q-141 0 -204 207q-41 137 -41 318zM78 502q0 -158 33 -277q49 -180 161 -180q111 0 166 186q39 127 39 271q0 165 -35 284q-51 178 -170 179q-111 0 -161 -189 q-33 -125 -33 -274zM178 1272q0 162 92 162q49 0 74 -60q20 -47 21 -102q0 -55 -21 -101q-25 -61 -74 -61q-92 0 -92 162zM231 1272q0 -88 39 -88q41 0 41 88q0 90 -41 90q-39 0 -39 -90z" />
<glyph unicode="&#xe6;" horiz-adv-x="987" d="M14 498q0 180 43 317q63 209 207 209q139 0 201 -184v180h53v-186q72 190 201 190q145 0 209 -186q45 -127 45 -301v-58l-455 -2v-35q0 -397 199 -397q145 0 188 250h53q-20 -131 -69 -209q-68 -109 -174 -109q-135 0 -197 164v-141h-53v172q-68 -195 -205 -195 q-141 0 -205 205q-41 137 -41 316zM66 498q0 -156 32 -275q49 -178 162 -178q111 0 166 176q39 123 39 277q0 165 -35 282q-51 176 -170 176q-111 0 -162 -188q-33 -123 -32 -270zM518 545h397q1 139 -34 248q-53 164 -162 163q-106 0 -162 -155q-39 -111 -39 -240v-16z" />
<glyph unicode="&#xe7;" d="M18 477q0 195 45 334q68 213 224 213q96 0 155 -106q43 -78 60 -191l-49 -47q-33 276 -168 276q-125 0 -181 -192q-35 -125 -34 -287q0 -147 34 -264q53 -174 170 -174q156 0 185 299l49 -43q-16 -125 -59 -207q-66 -119 -175 -119q-145 0 -211 199q-45 133 -45 309z M174 -317l14 69q61 -41 88 -41q68 0 68 88q0 57 -47 66q-27 4 -53 -25v47l8 154h53l-2 -109q96 -2 96 -141q0 -147 -118 -147q-41 0 -107 39z" />
<glyph unicode="&#xe8;" d="M12 502q0 182 43 321q66 209 211 209t209 -188q45 -127 45 -303v-58l-457 -2q4 -436 199 -436q141 0 191 254h53q-49 -322 -246 -322q-248 0 -248 525zM63 549h400q0 139 -35 248q-53 166 -162 166t-164 -164q-37 -111 -39 -250zM180 1343q0 35 27 35q14 0 22 -18 l115 -248q10 -25 -4 -43q-23 -27 -43 6l-113 246q-4 10 -4 22z" />
<glyph unicode="&#xe9;" d="M12 502q0 182 43 321q66 209 211 209t209 -188q45 -127 45 -303v-58l-457 -2q4 -436 199 -436q141 0 191 254h53q-49 -322 -246 -322q-248 0 -248 525zM63 549h400q0 139 -35 248q-53 166 -162 166t-164 -164q-37 -111 -39 -250zM182 1083q-4 18 2 33l113 248q18 39 47 4 q4 -10 4 -20q0 -9 -4 -21l-115 -246q-8 -18 -24 -18q-18 0 -23 20z" />
<glyph unicode="&#xea;" d="M12 502q0 182 43 321q66 209 211 209t209 -188q45 -127 45 -303v-58l-457 -2q4 -436 199 -436q141 0 191 254h53q-49 -322 -246 -322q-248 0 -248 525zM63 549h400q0 139 -35 250q-53 164 -162 164t-164 -164q-37 -109 -39 -250zM131 1081l111 299h41l112 -299h-57 l-76 203l-76 -203h-55z" />
<glyph unicode="&#xeb;" d="M12 500q0 184 43 321q66 209 211 209t209 -188q45 -127 45 -301v-60l-457 -2q4 -434 199 -434q141 0 191 252h53q-49 -319 -246 -320q-248 0 -248 523zM63 547h400q0 141 -35 250q-53 166 -162 166t-164 -164q-37 -111 -39 -252zM182 1133v110q0 35 25 35q27 0 26 -35 v-110q1 -39 -26 -39q-25 0 -25 39zM297 1133v110q0 35 25 35q29 0 28 -35v-110q1 -39 -28 -39q-25 0 -25 39z" />
<glyph unicode="&#xec;" horiz-adv-x="137" d="M-12 1321q-12 25 4 43q8 20 18 20t23 -24l114 -248q4 -10 5 -20q0 -33 -25 -33q-15 0 -25 16zM43 0v1008h53v-1008h-53z" />
<glyph unicode="&#xed;" horiz-adv-x="137" d="M-16 1085q0 10 4 19l114 248q8 18 23 18q27 0 27 -35q0 -10 -5 -20l-112 -246q-8 -18 -23 -18q-29 0 -28 34zM43 0v1008h53v-1008h-53z" />
<glyph unicode="&#xee;" horiz-adv-x="137" d="M-55 1081l102 299h43l107 -299h-58l-69 199l-72 -199h-53zM43 0v1008h53v-1008h-53z" />
<glyph unicode="&#xef;" horiz-adv-x="137" d="M-14 1133v110q0 35 28 35q27 0 27 -35v-110q0 -39 -27 -39q-29 0 -28 39zM43 0v1006h53v-1006h-53zM104 1133v110q0 35 25 35q29 0 29 -35v-110q0 -39 -29 -39q-25 0 -25 39z" />
<glyph unicode="&#xf0;" horiz-adv-x="565" d="M14 502q0 180 43 319q63 211 207 211q139 0 201 -186v328h-332v71h332v144h53v-1389h-53v174q-68 -197 -205 -197q-141 0 -205 207q-41 137 -41 318zM66 502q0 -158 32 -277q49 -180 162 -180q111 0 166 178q39 125 39 279q0 165 -35 284q-51 178 -170 179 q-111 0 -162 -191q-33 -123 -32 -272z" />
<glyph unicode="&#xf1;" d="M43 0v1006h53v-125q53 150 178 149q117 0 170 -127q39 -92 39 -221v-682h-51v662q0 109 -29 188q-41 113 -127 113q-102 0 -149 -160q-31 -106 -31 -238v-565h-53zM117 1137q0 47 18 90q25 55 66 55q18 0 74.5 -55.5t60.5 -55.5q29 0 39 138l45 -56q-5 -49 -19 -88 q-25 -61 -65 -61q-20 0 -76.5 55t-60.5 55q-14 0 -23.5 -33.5t-9.5 -109.5z" />
<glyph unicode="&#xf2;" horiz-adv-x="546" d="M14 504q0 182 45 321q68 207 215 207q150 0 215 -207q45 -135 46 -321q0 -186 -48 -326q-68 -201 -215 -201q-145 0 -213 207q-45 139 -45 320zM66 504q0 -150 36 -275q55 -184 172 -184q115 0 170 178q39 121 39 281q0 161 -37 282q-53 176 -172 177q-119 0 -174 -185 q-35 -121 -34 -274zM190 1343q0 35 27 35q14 0 23 -18l114 -248q6 -14 2 -33q-6 -20 -24 -20q-14 0 -25 16l-112 246q-4 10 -5 22z" />
<glyph unicode="&#xf3;" horiz-adv-x="546" d="M14 504q0 182 45 321q68 207 215 207q150 0 215 -207q45 -135 46 -321q0 -186 -48 -326q-68 -201 -215 -201q-145 0 -213 205q-45 141 -45 322zM66 504q0 -150 36 -275q55 -184 172 -184q115 0 170 178q39 121 39 281q0 161 -37 282q-53 176 -172 177q-119 0 -174 -185 q-35 -121 -34 -274zM188 1085q0 10 5 19l114 248q8 18 25 18q12 0 20 -14q12 -20 2 -41l-114 -246q-8 -18 -23 -18q-29 0 -29 34z" />
<glyph unicode="&#xf4;" horiz-adv-x="546" d="M14 504q0 182 45 321q68 207 215 207q150 0 215 -207q45 -135 46 -321q0 -186 -48 -326q-68 -201 -215 -201q-145 0 -213 207q-45 139 -45 320zM66 504q0 -150 36 -275q55 -184 172 -184q115 0 170 178q39 121 39 281q0 161 -37 282q-53 176 -172 177q-119 0 -174 -183 q-35 -123 -34 -276zM141 1081l111 299h41l113 -299h-58l-76 203l-75 -203h-56z" />
<glyph unicode="&#xf5;" horiz-adv-x="546" d="M14 502q0 184 45 321q68 207 215 207q150 0 215 -205q45 -137 46 -323q0 -184 -48 -324q-68 -201 -215 -201q-145 0 -213 205q-45 139 -45 320zM66 502q0 -147 36 -273q55 -184 172 -184q115 0 170 178q39 121 39 279q0 163 -37 282q-53 178 -172 179q-119 0 -174 -185 q-35 -121 -34 -276zM123 1137q0 47 18 90q25 55 66 55q18 0 74.5 -55.5t60.5 -55.5q31 0 41 142l43 -60q-4 -45 -18 -88q-23 -61 -66 -61q-18 0 -75.5 55t-59.5 55q-35 0 -37 -141z" />
<glyph unicode="&#xf6;" horiz-adv-x="546" d="M14 502q0 184 45 321q68 207 215 207q150 0 215 -207q45 -135 46 -321q0 -184 -48 -324q-68 -201 -215 -201q-145 0 -213 205q-45 139 -45 320zM66 502q0 -147 36 -273q55 -184 172 -184q115 0 170 178q39 121 39 279q0 163 -37 282q-53 178 -172 179q-119 0 -174 -185 q-35 -121 -34 -276zM190 1133v110q0 35 25 35q29 0 29 -35v-110q0 -39 -29 -39q-25 0 -25 39zM307 1133v110q0 35 25 35q27 0 26 -35v-110q1 -39 -26 -39q-25 0 -25 39z" />
<glyph unicode="&#xf7;" horiz-adv-x="593" d="M35 459v67h510v-67h-510zM272 188v127q0 35 25 35q27 0 27 -35v-127q0 -36 -27 -36q-25 0 -25 36zM272 653v127q0 35 25 35q27 0 27 -35v-127q0 -37 -27 -37q-25 0 -25 37z" />
<glyph unicode="&#xf8;" horiz-adv-x="546" d="M14 500q0 182 45 321q68 205 215 205q49 0 91 -25l28 123h53l-36 -159q125 -139 125 -465q0 -186 -48 -324q-68 -201 -215 -201q-53 0 -96 29l-24 -100h-52l33 139q-119 141 -119 457zM66 500q0 -244 86 -379l196 815q-35 22 -74 22q-119 0 -174 -184q-35 -121 -34 -274z M190 74q37 -31 84 -31q115 0 170 178q39 121 39 279q0 194 -55 321q-16 41 -37 70z" />
<glyph unicode="&#xf9;" d="M43 348v660h53v-658q0 -305 154 -305q182 0 182 416v547h51v-1008h-51v129q-55 -152 -182 -152q-117 0 -170 140q-37 96 -37 231zM184 1315q-10 25 4 41q8 20 19 20q10 0 22 -24l115 -248q10 -25 -4 -43q-23 -27 -43 6z" />
<glyph unicode="&#xfa;" d="M43 350v658h53v-658q0 -305 154 -305q182 0 182 416v547h51v-1008h-51v129q-55 -152 -182 -152q-117 0 -170 140q-37 96 -37 233zM184 1077q-6 18 0 35l113 248q8 18 25 18q27 0 26 -35q0 -12 -4 -22l-115 -244q-8 -18 -22 -18q-16 0 -23 18z" />
<glyph unicode="&#xfb;" d="M43 350v658h53v-656q0 -307 154 -307q182 0 182 416v547h51v-1008h-51v129q-55 -152 -182 -152q-117 0 -170 140q-37 96 -37 233zM131 1081l111 299h41l112 -299h-57l-76 203l-76 -203h-55z" />
<glyph unicode="&#xfc;" d="M43 348v658h53v-656q0 -305 154 -305q182 0 182 416v545h51v-1006h-51v129q-55 -152 -182 -152q-117 0 -170 140q-37 96 -37 231zM180 1133v110q0 35 25 35q27 0 26 -35v-110q1 -39 -26 -39q-25 0 -25 39zM297 1133v110q0 35 25 35q27 0 26 -35v-110q1 -39 -26 -39 q-25 0 -25 39z" />
<glyph unicode="&#xfd;" horiz-adv-x="507" d="M20 -27h52q10 -272 172 -272q188 0 188 344v78q-55 -152 -182 -152q-117 0 -170 140q-37 98 -37 233v662h53v-660q0 -307 154 -307q182 0 182 418v549h51v-963q1 -410 -241 -410q-215 0 -222 340zM172 1083q-6 18 2 33l115 248q8 18 22 18q29 0 29 -34q0 -11 -6 -23 l-115 -246q-8 -16 -22 -16q-18 0 -25 20z" />
<glyph unicode="&#xfe;" horiz-adv-x="565" d="M43 -344v1733h53v-547q63 188 197 188q145 0 209 -207q43 -133 43 -319q0 -188 -43 -326q-64 -207 -207 -207q-139 0 -199 187v-502h-53zM96 508q0 -467 203 -467q111 0 160 182q35 121 35 279q0 157 -35 280q-51 180 -160 181q-115 0 -168 -185q-35 -121 -35 -270z" />
<glyph unicode="&#xff;" horiz-adv-x="512" d="M20 -27h52q10 -272 172 -272q188 0 188 344v78q-55 -152 -182 -152q-117 0 -170 140q-37 96 -37 233v660h53v-658q0 -307 154 -307q182 0 182 418v547h51v-961q1 -410 -241 -410q-215 0 -222 340zM174 1133v110q0 35 25 35q23 0 24 -35l2 -110q1 -39 -26 -39 q-25 0 -25 39zM289 1133v110q0 35 24 35q25 0 27 -35l2 -110q0 -39 -29 -39q-25 0 -24 39z" />
<glyph unicode="&#x152;" horiz-adv-x="1013" d="M25 690q0 256 59 436q90 272 301 273q35 0 68 -10h532v-68h-420q166 -166 178 -563h211v-68h-206q0 -436 -175 -622h418v-68h-518q-41 -16 -88 -16q-207 0 -299 272q-61 182 -61 434zM76 690q0 -225 51 -389q78 -252 258 -252q37 0 72 14v1254q-35 14 -72 14 q-180 0 -258 -252q-51 -164 -51 -389zM508 94q55 43 98 129q88 176 88 467h-186v-596zM508 758h184q-12 403 -184 532v-532z" />
<glyph unicode="&#x153;" horiz-adv-x="1054" d="M39 500q0 182 45 319q68 205 215 205q178 0 236 -283q66 283 229 283q143 0 209 -186q47 -129 47 -301v-58l-459 -2q6 -432 201 -432q145 0 188 250h54q-20 -131 -70 -209q-68 -109 -174 -109q-174 0 -230 271q-63 -270 -233 -271q-145 0 -213 205q-45 137 -45 318z M90 500q0 -152 35 -273q55 -182 174 -182q115 0 170 176q39 121 39 279q0 157 -39 280q-55 176 -170 176q-119 0 -174 -182q-35 -121 -35 -274zM561 545h400q0 139 -35 248q-53 164 -162 163q-106 0 -160 -159q-37 -109 -43 -252z" />
<glyph unicode="&#x178;" horiz-adv-x="665" d="M-4 1393h59l279 -631l278 631h58l-310 -711v-682h-51v682zM254 1522v110q0 35 27 35q23 0 24 -35l2 -110q1 -39 -26 -39t-27 39zM371 1522v110q0 35 24 35q27 0 27 -35v-110q0 -39 -27 -39q-25 0 -24 39z" />
<glyph unicode="&#x2c6;" horiz-adv-x="260" d="M-2 1106l108 274h44l112 -274h-57l-76 186l-76 -186h-55z" />
<glyph unicode="&#x2dc;" horiz-adv-x="366" d="M33 1157q0 39 18 78q27 47 66 47q18 0 74.5 -47t58.5 -47q14 0 26.5 30.5t12.5 90.5l47 -52q-5 -40 -19 -73q-25 -53 -67 -54q-18 0 -74.5 47.5t-60.5 47.5q-12 0 -22.5 -28t-10.5 -95z" />
<glyph unicode="&#x2000;" horiz-adv-x="894" />
<glyph unicode="&#x2001;" horiz-adv-x="1788" />
<glyph unicode="&#x2002;" horiz-adv-x="894" />
<glyph unicode="&#x2003;" horiz-adv-x="1788" />
<glyph unicode="&#x2004;" horiz-adv-x="596" />
<glyph unicode="&#x2005;" horiz-adv-x="447" />
<glyph unicode="&#x2006;" horiz-adv-x="298" />
<glyph unicode="&#x2007;" horiz-adv-x="298" />
<glyph unicode="&#x2008;" horiz-adv-x="223" />
<glyph unicode="&#x2009;" horiz-adv-x="357" />
<glyph unicode="&#x200a;" horiz-adv-x="99" />
<glyph unicode="&#x2010;" horiz-adv-x="350" d="M37 520v41h289v-41h-289z" />
<glyph unicode="&#x2011;" horiz-adv-x="350" d="M37 520v41h289v-41h-289z" />
<glyph unicode="&#x2012;" horiz-adv-x="350" d="M37 520v41h289v-41h-289z" />
<glyph unicode="&#x2013;" horiz-adv-x="497" d="M-16 520v41h528v-41h-528z" />
<glyph unicode="&#x2014;" horiz-adv-x="897" d="M-16 520v41h927v-41h-927z" />
<glyph unicode="&#x2018;" horiz-adv-x="176" d="M45 1067l41 293q4 29 25 29q33 0 26 -43l-43 -293q-4 -39 -35 -25q-18 8 -14 39z" />
<glyph unicode="&#x2019;" horiz-adv-x="176" d="M45 1067l43 293q4 39 33 24q23 -8 16 -38l-43 -293q-4 -35 -35 -27q-20 8 -14 41z" />
<glyph unicode="&#x201a;" horiz-adv-x="292" d="M82 -156q0 6 2 13l43 293q4 29 20 28q4 0 11 -4q23 -8 16 -39l-41 -293q-4 -29 -24 -28q-27 0 -27 30z" />
<glyph unicode="&#x201c;" horiz-adv-x="268" d="M45 1067l41 293q4 29 25 29q33 0 26 -43l-43 -293q-4 -39 -35 -25q-18 8 -14 39zM150 1067l43 293q4 35 32 26q23 -8 17 -40l-43 -293q-4 -39 -33 -25q-23 8 -16 39z" />
<glyph unicode="&#x201d;" horiz-adv-x="276" d="M45 1067l43 293q4 39 33 24q23 -8 16 -38l-43 -293q-4 -35 -35 -27q-20 8 -14 41zM150 1067l43 293q6 41 32 24q23 -8 17 -38l-41 -293q-4 -29 -25 -29q-33 0 -26 43z" />
<glyph unicode="&#x201e;" horiz-adv-x="352" d="M82 -156q0 6 2 13l43 293q4 29 20 28q4 0 11 -4q23 -8 16 -39l-41 -293q-4 -29 -24 -28q-27 0 -27 30zM186 -152q0 4 2 7l43 295q6 41 35 24q20 -8 15 -39l-43 -293q-4 -39 -35 -24q-16 6 -17 30z" />
<glyph unicode="&#x2022;" horiz-adv-x="292" d="M41 547v237q0 35 80 35q84 0 84 -35v-237q0 -35 -84 -35q-80 0 -80 35z" />
<glyph unicode="&#x2026;" horiz-adv-x="641" d="M121 29v112q0 33 26 33q25 0 25 -33v-112q0 -33 -25 -33q-27 0 -26 33zM311 29v112q0 33 25 33q27 0 26 -33v-112q1 -33 -26 -33q-25 0 -25 33zM500 29v112q0 33 26 33q27 0 27 -33v-112q0 -33 -27 -33t-26 33z" />
<glyph unicode="&#x202f;" horiz-adv-x="357" />
<glyph unicode="&#x2039;" horiz-adv-x="294" d="M57 537v47l181 252v-95l-127 -180l127 -182v-88z" />
<glyph unicode="&#x203a;" horiz-adv-x="294" d="M57 291v88l125 182l-125 180v95l181 -252v-47z" />
<glyph unicode="&#x205f;" horiz-adv-x="447" />
<glyph unicode="&#x20ac;" horiz-adv-x="585" d="M20 506l7 69h69v187h-51l6 67h45v17q0 182 45 321q68 207 215 207q121 0 195 -157l-35 -62q-70 152 -160 152q-121 0 -174 -185q-33 -119 -32 -276v-17h294l-6 -67h-288v-187h268l-4 -69h-264v-4q0 -152 34 -275q55 -184 172 -184q90 0 160 147l37 -57 q-76 -158 -197 -158q-150 0 -215 205q-45 137 -45 322v4h-76z" />
<glyph unicode="&#x2122;" horiz-adv-x="792" d="M39 1331v70h356l150 -557l145 557h66v-690h-58v503l-131 -503h-47l-135 516l2 -516h-55v620h-88v-620h-58v620h-147z" />
</font>
</defs>
</svg>
