<?xml version="1.0" standalone="no"?>
<!DOCTYPE svg PUBLIC "-//W3C//DTD SVG 1.1//EN" "http://www.w3.org/Graphics/SVG/1.1/DTD/svg11.dtd" >
<svg xmlns="http://www.w3.org/2000/svg">
<metadata></metadata>
<defs>
<font id="walkway_semibold_revobliqueRg" horiz-adv-x="1075" >
<font-face units-per-em="2048" ascent="1638" descent="-410" />
<missing-glyph horiz-adv-x="724" />
<glyph horiz-adv-x="0" />
<glyph unicode="&#xd;" horiz-adv-x="724" />
<glyph unicode=" "  horiz-adv-x="724" />
<glyph unicode="&#x09;" horiz-adv-x="724" />
<glyph unicode="&#xa0;" horiz-adv-x="724" />
<glyph unicode="!" horiz-adv-x="397" d="M-131 1389h74l221 -1043h-74zM127 168q-8 35 29 35t45 -35l26 -131q9 -37 -28 -37t-45 37z" />
<glyph unicode="&#x22;" horiz-adv-x="598" d="M-141 1341q-8 35 26 35q39 0 47 -35l39 -186q9 -35 -30 -35q-35 0 -43 35zM94 1341q-8 35 29 35t45 -35l39 -186q8 -35 -29 -35t-45 35z" />
<glyph unicode="#" horiz-adv-x="1087" d="M41 485v68h182l8 182h-186l4 68h182l7 155h73l-6 -155h215l4 155h74l-4 -155h182v-68h-184l-6 -182h182v-68h-182l-6 -155h-74l6 155h-215l-6 -155h-74l6 155h-182zM297 553h215l6 182h-213z" />
<glyph unicode="$" horiz-adv-x="1314" d="M-129 1139q0 217 291 272l-29 131h74l24 -121q47 2 103 2q68 0 127 -6l-27 125h74l29 -135q377 -76 456 -428h-73q-80 293 -369 358l133 -622q211 -51 303 -111q133 -84 170 -260q8 -35 8 -68q0 -123 -104 -204q-88 -69 -221 -92l26 -123h-73l-25 112q-41 -4 -84 -4 q-76 0 -143 10l24 -118h-73l-27 127q-422 90 -500 458l-8 35h74l6 -26q68 -319 412 -396l-142 664q-373 84 -428 338q-8 43 -8 82zM-53 1122q0 -31 6 -65q25 -115 127 -183q74 -47 213 -81l-117 546q-227 -51 -229 -217zM248 1350l123 -576l235 -43l-131 619q-59 6 -127 6 q-55 0 -100 -6zM385 702l141 -659q68 -10 146 -10q43 0 82 6l-131 618zM698 641l127 -592q111 18 181 76q84 66 84 168q0 27 -7 57q-25 113 -84 164q-84 72 -301 127z" />
<glyph unicode="%" horiz-adv-x="1536" d="M-123 1116q0 229 227 230q291 0 371 -369q14 -72 14 -129q2 -232 -231 -232q-287 0 -362 361q-18 78 -19 139zM-45 1100q0 -53 16 -123q61 -295 275 -295q168 0 168 178q0 49 -15 117q-65 301 -282 301q-162 0 -162 -178zM244 0l702 1389h86l-700 -1389h-88zM772 463 q0 231 229 231q289 0 367 -370q16 -76 16 -136q0 -227 -229 -227q-289 0 -367 363q-16 78 -16 139zM850 444q0 -53 14 -120q63 -295 279 -295q164 0 164 176q0 51 -15 119q-63 303 -278 303q-166 0 -164 -183z" />
<glyph unicode="&#x26;" horiz-adv-x="1234" d="M6 383q0 119 92 221q72 78 250 182q-276 123 -321 336q-8 31 -9 58q0 104 91 161q78 47 188 48q150 0 264 -78q129 -90 129 -234q0 -172 -303 -356q-178 -109 -229 -166q-76 -86 -76 -186q0 -170 178 -267q127 -68 266 -67q274 0 355 235q27 78 26 162q0 61 -14 125h74 l127 -596h-74l-62 289q-4 -14 -8 -29q-119 -254 -397 -254q-178 0 -328 82q-219 121 -219 334zM94 1163q0 -20 6 -43q39 -190 314 -299q203 129 202 262q0 121 -118 191q-81 47 -183 47q-86 0 -147 -37q-74 -43 -74 -121z" />
<glyph unicode="'" horiz-adv-x="358" d="M-141 1341q-8 35 26 35q39 0 47 -35l39 -186q9 -35 -30 -35q-35 0 -43 35z" />
<glyph unicode="(" horiz-adv-x="477" d="M-35 981q2 283 105 522h80q-111 -248 -111 -540q0 -182 43 -383q111 -522 461 -924h-80q-344 403 -455 924q-45 211 -43 401z" />
<glyph unicode=")" horiz-adv-x="477" d="M-322 1503h80q352 -395 465 -923q43 -199 43 -379q1 -297 -114 -545h-80q119 254 118 555q0 176 -40 369q-111 520 -472 923z" />
<glyph unicode="*" horiz-adv-x="696" d="M-176 1260q6 14 26 14q9 0 19 -4h2l168 -72l-31 143q-8 35 29 35t45 -35l31 -145l133 74q8 4 18 4q20 0 33 -14q27 -33 -6 -50l-129 -67l162 -72q23 -10 26 -31q6 -33 -31 -32q-10 0 -22 4l-162 73l31 -143q8 -35 -29 -35t-45 35l-31 143l-131 -73q-12 -4 -22 -4 q-37 0 -43 32q-4 20 16 31l129 72l-160 69q-39 16 -26 48z" />
<glyph unicode="+" horiz-adv-x="1146" d="M29 549h391l-72 338h74l72 -338h393l14 -68h-393l74 -344h-74l-74 344h-391z" />
<glyph unicode="," horiz-adv-x="536" d="M221 -141l25 293q4 33 39 24q39 -8 34 -43l-22 -293q-2 -27 -31 -26q-39 0 -45 30v15z" />
<glyph unicode="-" horiz-adv-x="716" d="M-29 561h557l9 -41h-557z" />
<glyph unicode="." horiz-adv-x="428" d="M147 141q-6 33 31 33t43 -33l25 -112q6 -33 -31 -33t-43 33z" />
<glyph unicode="/" horiz-adv-x="716" d="M-20 0l395 1421h78l-396 -1421h-77z" />
<glyph unicode="0" horiz-adv-x="1196" d="M-113 987q0 186 115 286.5t305 100.5q242 0 408 -145.5t217 -382.5l74 -344q16 -78 16 -146q0 -184 -117 -284q-109 -97 -299 -97q-240 0 -408.5 144.5t-220.5 382.5l-73 344q-16 76 -17 141zM-37 971q0 -59 14 -125l74 -344q43 -205 187.5 -332t351.5 -127q162 0 259 87 t97 247q0 57 -14 125l-74 344q-43 205 -184 330q-150 131 -355 131q-164 0 -260 -88.5t-96 -247.5z" />
<glyph unicode="1" horiz-adv-x="845" d="M-41 979l346 344h66l280 -1323h-73l-259 1219l-245 -240h-115z" />
<glyph unicode="2" horiz-adv-x="1196" d="M-72 1014q0 332 394 332q195 0 327 -74q156 -86 193 -262q4 -18 4 -37q0 -154 -258 -318q-137 -86 -219 -145q-203 -186 -203 -389q0 -27 4 -53h936l14 -68h-1018q-12 63 -12 125q0 291 295 491q63 41 252 168q135 92 135 197q0 74 -49 143q-45 61 -117 99 q-109 55 -258 55q-346 0 -344 -281q0 -59 14 -129h-73q-16 80 -17 146z" />
<glyph unicode="3" horiz-adv-x="1196" d="M-94 1024q0 322 428 322q201 0 340 -70q170 -86 209 -260q8 -43 8 -80q0 -170 -195 -223q291 -68 351 -346q8 -43 8 -82q0 -160 -148 -242q-119 -66 -295 -66q-242 0 -405 109q-180 119 -230 346l-6 35h74l12 -64q37 -176 199 -272q143 -86 334 -86q150 0 256 53 q135 70 135 205q0 31 -6 64q-66 309 -479 309h-109l-14 69h110q332 0 332 203q0 33 -6 68q-31 137 -176 207q-119 55 -279 55q-373 0 -372 -274q0 -51 12 -111h-74q-14 72 -14 131z" />
<glyph unicode="4" horiz-adv-x="1196" d="M-53 451l254 874h78l-236 -807h647l-172 807l76 -2l170 -805h264l14 -67h-264l96 -451h-73l-96 451h-758z" />
<glyph unicode="5" horiz-adv-x="1196" d="M-141 1323h909l14 -68h-835l84 -507q106 160 360 159q227 0 400 -121q180 -127 225 -344q12 -61 12 -114q0 -176 -131 -269q-117 -82 -303 -82q-524 0 -623 467h74q84 -399 537 -399q160 0 258 68q115 78 114 229q0 45 -12 98q-39 190 -197 297q-147 100 -348 101 q-262 0 -348 -197h-78z" />
<glyph unicode="6" horiz-adv-x="1196" d="M-90 1014q0 162 127 248q111 76 282 75q217 0 375 -117.5t201 -326.5h-72q-37 178 -172 280.5t-319 102.5q-147 0 -240 -66q-104 -74 -104 -213q0 -43 10 -90l51 -243q88 178 369 178q213 0 366 -109q162 -117 205 -319q12 -53 12 -101q0 -162 -127 -250 q-111 -76 -280 -75q-211 0 -365 108q-162 117 -204 318l-5 20q-2 14 -2 17l-98 462q-10 53 -10 101zM86 506q0 -43 10 -92q37 -174 174 -273q131 -94 314 -94q145 0 239 66q104 74 105 211q0 43 -10 90q-37 174 -177 272q-131 94 -313 94q-147 0 -238 -61 q-104 -72 -104 -213z" />
<glyph unicode="7" horiz-adv-x="1196" d="M-160 1323h983l-379 -1323h-77l360 1255h-872z" />
<glyph unicode="8" horiz-adv-x="1230" d="M-78 1081q0 264 408 265q205 0 344 -74q166 -90 205 -273q6 -31 6 -57q0 -152 -195 -213q332 -70 391 -354q10 -49 11 -90q0 -170 -160 -248q-121 -60 -311 -60q-236 0 -396 86q-188 102 -233 316q-10 43 -10 82q0 213 247 268q-256 72 -299 270q-8 43 -8 82zM-2 1065 q0 -31 6 -68q27 -125 186 -190q123 -51 269 -51q123 0 221 41q129 57 129 164q0 20 -4 40q-60 277 -461 277q-346 0 -346 -213zM57 449q0 -33 9 -72q37 -176 204 -262q137 -70 336 -70q164 0 268 49q141 63 142 209q0 35 -8 74q-66 311 -535 311q-416 0 -416 -239z" />
<glyph unicode="9" horiz-adv-x="1196" d="M-88 1030q0 164 125 250q106 76 278 76q209 0 367 -111q164 -119 207 -317l4 -21v-14l106 -502q12 -51 13 -98q0 -162 -131 -248q-111 -76 -283 -76q-217 0 -372.5 116t-200.5 325h71q39 -180 174 -283q129 -98 318 -98q145 0 237 65q106 76 107 213q0 43 -10 88l-62 285 q-86 -178 -366 -178q-211 0 -365 108q-162 117 -205 318q-12 55 -12 102zM-14 1022q0 -45 10 -94q37 -174 174 -273q131 -92 313 -92q145 0 238 64q106 74 106 213q0 41 -10 88q-37 174 -176 274q-131 94 -315 94q-145 0 -236 -63q-104 -74 -104 -211z" />
<glyph unicode=":" horiz-adv-x="499" d="M20 915q-8 37 29 37q35 0 43 -37l29 -129q8 -36 -29 -36t-45 36zM180 162q-8 37 29 37q35 0 43 -37l31 -129q8 -37 -31 -37q-37 0 -43 37z" />
<glyph unicode=";" horiz-adv-x="514" d="M61 915q-8 37 29 37t45 -37l27 -129q8 -36 -29 -36t-45 36zM207 -139l22 309q4 35 39 27q37 -10 35 -45l-20 -310q-2 -29 -29 -28q-39 0 -45 32q-2 6 -2 15z" />
<glyph unicode="&#x3c;" horiz-adv-x="1095" d="M-27 524l834 367l14 -72l-747 -327l887 -328l14 -72l-989 369z" />
<glyph unicode="=" horiz-adv-x="1290" d="M-49 641h1116l14 -63h-1116zM2 406h1116l15 -64h-1117z" />
<glyph unicode="&#x3e;" horiz-adv-x="1095" d="M-104 891l989 -367l12 -63l-834 -369l-14 72l746 328l-885 327z" />
<glyph unicode="?" d="M-156 1038q-14 190 99 291q102 92 297 92q178 0 315 -80q158 -90 193 -251q6 -31 6 -64q-1 -144 -142 -283q-152 -150 -151 -243q0 -29 12 -90l14 -64h-75l-11 51q-10 41 -10 82q0 156 135 289q100 100 131 158q37 70 17 164q-29 135 -160 204q-111 59 -260 60 q-338 0 -336 -295q0 -27 2 -60zM451 168q-8 35 26 35q39 0 47 -35l27 -131q8 -37 -31 -37q-35 0 -43 37z" />
<glyph unicode="@" horiz-adv-x="1720" d="M-61 866q0 215 141 365q184 193 510 192q297 0 534 -157q254 -170 314 -449q12 -61 12 -119q0 -133 -66 -254q-33 -61 -96 -106q-70 -49 -133 -49q-78 0 -96 86q-2 12 -8 92q-98 -205 -355 -207q-203 -2 -331 139q-88 96 -117 228q-16 76 -17 143q0 133 64 229 q104 156 334 158q262 4 381 -196l-15 196h70l63 -778q4 -16 25 -17q47 0 100 48q47 43 68 92q51 117 51 225q0 147 -84 283q-80 125 -211 211q-209 137 -465 137q-303 0 -467 -178q-125 -133 -125 -330q0 -72 19 -154q61 -293 309 -475q238 -178 543 -178q170 0 321 74 q172 86 228 229h84q-55 -174 -244 -276q-170 -92 -367 -93q-340 0 -608 199q-281 205 -348 531q-18 84 -18 159zM299 750q0 -55 12 -117q31 -145 130.5 -229.5t246.5 -84.5q166 2 260 115t84 279q-2 27 -12 73q-65 312 -391 308q-186 -2 -273 -136q-57 -92 -57 -208z" />
<glyph unicode="A" horiz-adv-x="1302" d="M-14 0l344 1389h76l909 -1389h-80l-293 446h-762l-108 -446h-86zM199 514h700l-508 772z" />
<glyph unicode="B" horiz-adv-x="1314" d="M-209 1389h676q195 0 332 -84q154 -94 192 -275q8 -33 8 -66q0 -164 -202 -237q317 -66 379 -348q8 -45 8 -84q0 -160 -154 -238q-117 -57 -295 -57h-649zM-121 1321l119 -563h596q129 0 217 45q111 59 111 176q0 29 -7 61q-31 143 -165 217q-115 64 -273 64h-598z M12 690l133 -622h600q143 0 242 49q125 63 125 192q0 33 -8 68q-35 164 -189 246q-127 67 -311 67h-592z" />
<glyph unicode="C" horiz-adv-x="1472" d="M-78 872q0 201 109 336q156 195 493 195q391 0 621 -252l-53 -41q-201 225 -553 225q-301 0 -443 -174q-96 -119 -98 -293v-15q0 -76 18 -161q61 -291 269.5 -465t502.5 -174q338 0 461 230l72 -41q-139 -256 -516 -256q-330 0 -560.5 187t-299.5 511q-20 100 -23 188z " />
<glyph unicode="D" horiz-adv-x="1392" d="M-193 1389h543q334 0 547 -187q207 -178 277 -510q22 -96 22 -179v-7q0 -260 -188 -391q-165 -115 -441 -115h-465zM-104 1321l266 -1253h397q248 0 391 98q170 115 170 348q0 82 -20 178q-63 301 -246 461q-191 168 -492 168h-466z" />
<glyph unicode="E" horiz-adv-x="1155" d="M-193 1389h1027l14 -68h-954l118 -563h846l14 -66h-845l133 -624h964l15 -68h-1037z" />
<glyph unicode="F" horiz-adv-x="1034" d="M-193 1389h953l14 -68h-880l118 -563h754l14 -66h-753l147 -692h-72z" />
<glyph unicode="G" horiz-adv-x="1552" d="M-113 877v7q0 196 107 328q156 190 493 191q561 0 758 -469h-76q-176 401 -665 401q-242 0 -385 -112q-158 -123 -158 -357q0 -82 21 -174q66 -305 279.5 -472t526.5 -167q201 0 340 90q160 106 160 295q0 49 -10 105l-12 53h-596l-15 68h666q43 -131 43 -234 q0 -219 -176 -340q-154 -104 -385 -104q-346 0 -582 182q-242 186 -313 522q-20 98 -21 187z" />
<glyph unicode="H" horiz-adv-x="1392" d="M-193 1389h74l133 -631h1043l-133 631h73l295 -1389h-73l-148 692h-1042l147 -692h-74z" />
<glyph unicode="I" horiz-adv-x="274" d="M-193 1389h74l295 -1389h-74z" />
<glyph unicode="J" horiz-adv-x="995" d="M-43 319h74q78 -266 405 -266q147 0 217 41q86 52 86 179v6q0 57 -14 129l-209 981h74l211 -994q14 -70 14 -127q0 -282 -356 -282q-399 0 -502 333z" />
<glyph unicode="K" horiz-adv-x="1372" d="M-193 1389h74l168 -793l873 793h116l-659 -596l989 -793h-100l-940 752l-260 -244l108 -508h-74z" />
<glyph unicode="L" horiz-adv-x="1034" d="M-193 1389h74l281 -1321h876l15 -68h-951z" />
<glyph unicode="M" horiz-adv-x="1677" d="M-193 1389h95l915 -1293l369 1293h94l295 -1389h-74l-270 1268l-359 -1268h-67l-899 1268l270 -1268h-74z" />
<glyph unicode="N" horiz-adv-x="1392" d="M-193 1389h87q209 -215 651 -644q430 -418 651 -641l-272 1285h73l295 -1389h-88l-1302 1288l274 -1288h-74z" />
<glyph unicode="O" horiz-adv-x="1550" d="M-113 889q2 250 176 379q155 114 415 114h5q336 0 567.5 -180t301.5 -508q22 -100 22 -186v-8q0 -256 -172 -391q-156 -123 -424 -123q-338 0 -568 188t-300 520q-23 104 -23 195zM-37 866q0 -80 21 -172q63 -297 271 -469t509 -172q242 0 383 111q151 120 151 349 q0 85 -20 181q-63 297 -269 459t-511 162q-240 0 -379 -105q-156 -117 -156 -344z" />
<glyph unicode="P" horiz-adv-x="1271" d="M-193 1389h629q492 0 574 -390q10 -43 10 -81q0 -158 -152 -238q-116 -62 -290 -62h-533l131 -618h-74zM-104 1321l135 -633h569q135 0 227 53q115 63 115 191q0 31 -8 65q-68 324 -471 324h-567z" />
<glyph unicode="Q" horiz-adv-x="1550" d="M-113 883q0 254 174 383q153 116 417 116h5q338 0 568.5 -180t300.5 -510q20 -98 20 -184q0 -193 -97.5 -322t-283.5 -176q88 -78 209 -78h205l14 -67h-205q-170 0 -294 129q-66 -10 -140 -10q-340 0 -569 188t-301 520q-20 102 -23 191zM-37 866q0 -80 21 -174 q61 -291 268 -463q8 100 88 160q72 53 176 53q133 0 245.5 -81.5t139.5 -208.5q10 -41 35 -82q174 41 267 159.5t93 296.5q0 78 -18 166q-63 299 -269 461t-511 162q-240 0 -379 -105q-156 -117 -156 -344zM322 180q197 -129 444 -129q55 0 104 8q-29 46 -39 95 q-20 100 -107 161.5t-194 61.5q-94 0 -153 -49q-57 -47 -57 -122q0 -13 2 -26z" />
<glyph unicode="R" horiz-adv-x="1314" d="M-193 1389h654q473 0 549 -359q10 -45 10 -85v-13q0 -188 -201 -256q262 -74 316 -330l73 -346h-73l-72 340q-63 295 -461 295h-561l135 -635h-74zM-104 1321l131 -616h551q147 0 243 49q125 66 125 198q0 35 -8 72q-64 297 -459 297h-583z" />
<glyph unicode="S" horiz-adv-x="1314" d="M-129 1133q0 270 467 270q557 0 657 -426h-73q-55 205 -211 289q-127 69 -353 69h-6q-405 0 -405 -218q0 -30 8 -62q29 -139 172 -209q94 -45 305 -82q381 -68 524 -143q162 -88 201 -275q8 -37 8 -67q0 -160 -176 -236q-129 -57 -311 -57q-616 0 -713 458l-8 35h74 l6 -26q84 -399 629 -400q162 0 270 43q154 61 154 199q0 27 -9 57q-23 113 -100 174q-61 49 -184 84q-70 18 -308 68q-276 55 -374 102q-197 92 -234 275q-10 41 -10 78z" />
<glyph unicode="T" horiz-adv-x="1116" d="M-305 1389h1136l15 -68h-531l281 -1321h-74l-280 1321h-533z" />
<glyph unicode="U" horiz-adv-x="1359" d="M-193 1389h74l185 -867q98 -469 602 -469q422 0 422 323q0 64 -15 138l-186 875h74l184 -873q20 -90 20 -166q0 -364 -485 -364q-291 0 -457 125q-174 129 -233 409z" />
<glyph unicode="V" horiz-adv-x="1286" d="M-291 1389h76l848 -1291l280 1291h76l-303 -1389h-68z" />
<glyph unicode="W" horiz-adv-x="1986" d="M-285 1389h76l825 -1291l154 781l-324 510h76l826 -1291l258 1291h75l-280 -1389h-68l-504 786l-159 -786h-68z" />
<glyph unicode="X" horiz-adv-x="1236" d="M-293 1389h98l654 -621l395 621h96l-428 -674l746 -715h-94l-691 659l-417 -659h-95l451 715z" />
<glyph unicode="Y" horiz-adv-x="1282" d="M-330 1389h94l719 -644l447 644h92l-485 -713l143 -676h-74l-143 676z" />
<glyph unicode="Z" horiz-adv-x="1282" d="M-174 1389h1087l15 -70l-791 -1251h1073l15 -68h-1164l-14 72l789 1249h-996z" />
<glyph unicode="[" horiz-adv-x="477" d="M-127 1503h272l15 -67h-199l365 -1712h198l15 -68h-273z" />
<glyph unicode="\" horiz-adv-x="716" d="M-344 1421h78l1007 -1421h-77z" />
<glyph unicode="]" horiz-adv-x="477" d="M-305 1503h272l389 -1847h-268l-14 68h196l-16 81l-348 1631h-197z" />
<glyph unicode="^" horiz-adv-x="610" d="M-125 1047l115 276h59l238 -276h-84l-166 198l-84 -198h-78z" />
<glyph unicode="_" d="M14 -145h1108l21 -99h-1108z" />
<glyph unicode="`" horiz-adv-x="395" d="M-233 1370q23 20 55 -6l280 -227q33 -27 4 -47q-18 -14 -53 6l-280 225q-35 29 -6 49z" />
<glyph unicode="a" horiz-adv-x="1155" d="M-78 647q0 133 62 225q102 152 340 152q301 0 475 -242l-51 238h73l217 -1020h-73l-47 225q-80 -248 -381 -248q-227 0 -394 150q-156 141 -204 371q-16 80 -17 149zM-4 625q0 -59 14 -127q43 -201 174 -322q137 -131 336 -131q197 0 291 133q61 88 61 205q0 55 -14 115 q-43 211 -178 331q-143 127 -352 127q-197 0 -281 -137q-51 -82 -51 -194z" />
<glyph unicode="b" horiz-adv-x="1155" d="M-190 1389h73l127 -598q68 241 369 241h2q238 0 401 -151q154 -143 205 -381q16 -80 17 -150q0 -180 -107 -275t-295 -95q-137 0 -263 65.5t-208 177.5l47 -223h-74zM55 643q0 -68 19 -147q41 -197 182 -320q147 -129 344 -129q156 0 243 85t87 239q0 59 -15 131 q-43 205 -172 327q-139 136 -340 136q-348 0 -348 -322z" />
<glyph unicode="c" d="M-66 633q0 193 119 295q115 96 314 96q160 0 289.5 -77t197.5 -220l-61 -35q-123 264 -416 264q-170 0 -268.5 -88t-98.5 -252q0 -63 15 -135q43 -201 182 -318.5t342 -117.5q150 0 235 68q93 74 93 212v9l79 -31q-4 -164 -118 -250q-103 -76 -273 -76 q-236 0 -400.5 136.5t-213.5 367.5q-16 82 -17 152z" />
<glyph unicode="d" horiz-adv-x="1155" d="M-78 653q0 131 62 226q101 153 335 153h3q301 0 475 -244l-127 601h73l295 -1389h-73l-47 225q-80 -248 -381 -248q-229 0 -394 150q-156 143 -204 375q-16 80 -17 151zM-4 631q0 -61 14 -129q43 -201 172 -324q141 -133 338 -133t289 135q61 88 61 207q0 53 -12 115 q-45 211 -180 334q-143 129 -352 129q-197 0 -281 -140q-49 -84 -49 -194z" />
<glyph unicode="e" d="M-82 639q0 139 70 240q106 145 338 145q229 0 394 -131t212 -356l12 -58l-936 -2q104 -432 518 -432q135 0 226 57q102 66 122 193h76q-31 -317 -413 -318q-246 0 -402 142q-150 133 -203 379q-14 76 -14 141zM-10 625q0 -39 4 -80h850q-43 188 -178.5 299.5 t-325.5 111.5q-162 0 -256 -87t-94 -244z" />
<glyph unicode="f" horiz-adv-x="546" d="M-145 901h147l-16 84q-13 55 -13 99q0 280 420 280l15 -66q-358 0 -359 -233q0 -37 10 -80l17 -84h227l16 -70h-227l176 -833h-73l-177 833h-147z" />
<glyph unicode="g" horiz-adv-x="1116" d="M-78 651q0 180 108.5 276.5t293.5 96.5q131 0 252.5 -61.5t199.5 -167.5l-45 204h74l205 -958q12 -63 12 -117q0 -291 -399 -291q-420 0 -510 338h73q80 -270 424 -270q336 0 336 244q0 45 -10 98l-41 184q-39 -109 -150 -166q-96 -53 -221 -53q-223 0 -385 144 q-154 137 -200 360q-16 74 -17 139zM-2 633q0 -55 14 -119q41 -193 168 -311q135 -127 326 -127q156 0 250 84t94 235q0 53 -14 113q-39 188 -174 315q-142 133 -328 133q-193 0 -281 -129q-55 -82 -55 -194z" />
<glyph unicode="h" d="M-190 1389h73l119 -562q59 205 340 205q178 0 307 -88q139 -94 174 -262l146 -682h-74l-141 662q-31 147 -136.5 225t-259.5 78q-143 0 -228 -76t-85 -215q0 -51 12 -109l121 -565h-74z" />
<glyph unicode="i" horiz-adv-x="278" d="M-188 1376q6 31 26 31q18 0 47 -29l31 -143q-15 -27 -35 -27q-23 0 -39 29zM-111 1008h74l215 -1008h-74z" />
<glyph unicode="j" horiz-adv-x="278" d="M-256 -301q356 0 356 252v6q-2 41 -12 88l-203 961h74l205 -963q12 -61 12 -115q0 -295 -418 -295zM-188 1376q6 31 26 31q18 0 47 -29l31 -145q-15 -25 -35 -25q-23 0 -39 29z" />
<glyph unicode="k" horiz-adv-x="1089" d="M-190 1389h73l193 -908l610 529l131 -2l-467 -390l707 -618h-99l-657 573l-207 -178l84 -395h-74z" />
<glyph unicode="l" horiz-adv-x="278" d="M-190 1389h73l295 -1389h-74z" />
<glyph unicode="m" horiz-adv-x="1673" d="M-109 999h74l37 -174q57 199 313 199q246 0 365 -203q47 203 311 203q360 0 434 -346l144 -678h-74l-139 657q-63 299 -346 299q-123 0 -199 -59q-80 -66 -80 -184q0 -39 10 -84l133 -629h-73l-139 657q-63 299 -353 299q-164 0 -229 -122q-35 -66 -35 -156 q0 -53 14 -117l119 -561h-74z" />
<glyph unicode="n" d="M-109 999h74l39 -180q59 205 340 205q176 0 305 -86q139 -94 176 -260l144 -678h-74l-139 657q-31 145 -137.5 222t-258.5 77q-143 0 -228 -75.5t-85 -214.5q0 -49 12 -105l119 -561h-74z" />
<glyph unicode="o" horiz-adv-x="1116" d="M-78 641q0 184 119 287q113 96 303 96q238 0 407 -144.5t218 -379.5q16 -72 16 -135q0 -186 -115.5 -287t-308.5 -101q-236 0 -404.5 144.5t-217.5 378.5q-16 76 -17 141zM-2 625q0 -57 14 -125q43 -203 187.5 -329t349.5 -126q164 0 262 87t98 245q0 57 -14 123 q-43 207 -186.5 331.5t-352.5 124.5q-164 0 -261 -86t-97 -245z" />
<glyph unicode="p" horiz-adv-x="1155" d="M-109 999h74l47 -217q33 121 140 185q96 57 229 57q238 0 399 -147q158 -139 207 -377q18 -84 19 -156q0 -182 -107 -277.5t-293 -95.5q-303 0 -473 240l119 -555h-74zM57 625q0 -55 15 -121q98 -465 528 -465q158 0 245 86t87 240q0 61 -17 133q-41 201 -172 325 q-138 133 -335 133q-162 0 -256.5 -87t-94.5 -244z" />
<glyph unicode="q" horiz-adv-x="1155" d="M-78 641q0 133 66 229q102 154 331 154q305 0 478 -242l-47 217h73l287 -1343h-74l-116 551q-66 -236 -385 -236q-225 0 -392 156q-156 145 -204 373q-16 76 -17 141zM-2 631q0 -61 14 -133q43 -199 172 -324q141 -135 336 -135q166 0 260 81t94 240q0 63 -16 138 q-41 200 -186 329q-100 88 -178 113q-53 16 -170 16q-156 0 -241 -87t-85 -238z" />
<glyph unicode="r" horiz-adv-x="651" d="M-109 999h74l47 -217q16 76 74 133q106 109 311 109l15 -68q-238 0 -310 -178q-30 -78 -30 -178v-6q0 -88 22 -195l84 -399h-74z" />
<glyph unicode="s" horiz-adv-x="995" d="M-51 801q0 113 102 174q84 51 207 51q424 0 498 -344h-80q-57 272 -393 272q-98 0 -168 -36q-86 -45 -86 -134q0 -20 4 -43q31 -139 250 -180q29 -6 225 -39q299 -51 344 -266q8 -33 8 -61q0 -222 -344 -222q-440 0 -524 389h78q68 -317 432 -317q106 0 180 33 q98 43 98 135q0 20 -6 43q-29 141 -256 190q-37 8 -215 35q-303 45 -348 260q-6 31 -6 60z" />
<glyph unicode="t" horiz-adv-x="538" d="M-174 950h203l-66 307h74l65 -307h207l17 -69h-207l186 -881h-69l-191 881h-203z" />
<glyph unicode="u" d="M-109 999h74l139 -651q63 -303 398 -303q311 0 311 287q0 57 -14 125l-117 542h74l213 -999h-74l-39 180q-63 -203 -340 -203q-186 0 -313 93q-133 96 -172 276z" />
<glyph unicode="v" horiz-adv-x="964" d="M-219 999h88l614 -915l195 915h80l-219 -999h-74z" />
<glyph unicode="w" horiz-adv-x="1579" d="M-178 999h84l594 -913l112 596l-213 317h88l592 -913l174 913h80l-196 -999h-76l-387 588l-119 -588h-74z" />
<glyph unicode="x" horiz-adv-x="956" d="M-197 999h97l456 -430l283 430h90l-313 -481l565 -518h-92l-510 465l-311 -465h-93l347 518z" />
<glyph unicode="y" d="M-109 999h74l139 -655q66 -305 400 -305q309 0 309 287q0 57 -14 127l-117 546h74l205 -958q12 -63 12 -115q-1 -293 -402 -293q-418 0 -508 338h74q80 -270 424 -270q334 0 336 244q0 45 -10 98l-29 131q-63 -205 -340 -205q-188 0 -315 94q-133 98 -170 279z" />
<glyph unicode="z" horiz-adv-x="968" d="M-111 999h791l14 -65l-573 -866h792l15 -68h-885l-14 68l571 864h-696z" />
<glyph unicode="{" horiz-adv-x="716" d="M39 608q88 41 104 66q29 43 2 162l-98 460q-8 41 -8 76q0 131 139 131h39l14 -67h-36q-72 0 -78 -64q-4 -33 16 -125l88 -416q29 -133 -4 -188q-14 -27 -76 -63q74 -33 103 -62q55 -57 84 -190l88 -414q20 -94 37 -127q35 -63 106 -63h37l14 -68h-39q-174 0 -219 207 l-98 461q-25 119 -70 161q-29 25 -133 68z" />
<glyph unicode="|" horiz-adv-x="477" d="M-104 1446h73l322 -1512h-74z" />
<glyph unicode="}" horiz-adv-x="716" d="M-152 1503h37q176 0 219 -207l99 -460q27 -121 69 -162q27 -25 136 -66l12 -55q-93 -43 -107 -68q-27 -41 -2 -161l99 -461q10 -43 10 -76q-2 -131 -141 -131h-37l-15 68h35q70 0 78 63q4 37 -14 127l-88 414q-29 135 0 190q16 29 77 62q-78 35 -104 63q-51 53 -80 188 l-88 416q-20 88 -39 125q-37 63 -106 64h-35z" />
<glyph unicode="~" horiz-adv-x="1122" d="M-53 717q-4 96 52 154.5t153 58.5q68 0 233.5 -68.5t224.5 -68.5q127 0 121 141h96q4 -101 -53 -158q-39 -39 -72 -51q-23 -6 -77 -6q-70 0 -238 67.5t-225 67.5q-125 0 -119 -137h-96z" />
<glyph unicode="&#xa0;" />
<glyph unicode="&#xa1;" horiz-adv-x="397" d="M-82 1157q-8 37 29 37t45 -37l28 -131q7 -35 -30 -35t-43 35zM-18 848h73l221 -1043h-73z" />
<glyph unicode="&#xa2;" d="M-66 633q0 193 117 293t316 100q78 0 147 -18l35 120h78l-41 -143q176 -74 266 -256l-59 -35q-78 166 -224 228l-233 -836q96 -41 213 -41q152 0 237 68q94 74 91 221l79 -31q-4 -164 -118 -250q-103 -78 -271 -78q-133 0 -250 48l-26 -97h-78l37 131q-238 139 -299 426 q-16 80 -17 150zM8 618q0 -63 17 -135q51 -242 241 -362l232 823q-58 14 -121 14q-170 0 -269.5 -88t-99.5 -252z" />
<glyph unicode="&#xa4;" horiz-adv-x="1196" d="M-127 1151l41 43l248 -180q76 59 186 59q115 0 213 -59l170 180l62 -43l-172 -182q117 -98 116 -230q0 -68 -37 -121l242 -178l-41 -43l-244 176q-74 -61 -188 -61q-115 0 -217 63l-168 -178l-61 43l170 181q-111 98 -111 227q0 68 37 121zM154 840q0 -123 112 -201 q86 -61 189 -61q84 0 148.5 45t64.5 125q0 127 -119 204q-85 56 -187 56q-84 0 -143 -39q-66 -47 -65 -129z" />
<glyph unicode="&#xa5;" horiz-adv-x="1320" d="M-309 1389h94l719 -644l446 644h92l-485 -713l21 -94h434l14 -70h-434l39 -186h434l14 -68h-434l55 -258h-73l-56 258h-434l-14 68h434l-39 186h-434l-14 70h434l-21 94z" />
<glyph unicode="&#xa6;" horiz-adv-x="477" d="M-100 1425h73l142 -663h-74zM72 616h73l142 -663h-74z" />
<glyph unicode="&#xa7;" horiz-adv-x="1196" d="M-10 1106q0 115 100 176q84 51 207 51q422 0 496 -344h-74q-57 276 -395 277q-100 0 -170 -37q-88 -45 -88 -137q0 -20 4 -45q23 -106 149 -152q53 -18 277 -61q113 -10 188 -50q174 -68 207 -225q8 -37 8 -70q-2 -149 -178 -196q205 -66 240 -227q6 -31 6 -60 q0 -113 -101 -176q-86 -51 -207 -51q-420 0 -493 342h74q59 -274 395 -275q100 0 170 37q88 45 88 137q0 20 -6 46q-29 139 -213 174l-328 63q-104 31 -180 98q-86 76 -100 172q-2 23 -3 41q0 156 175 203q-207 66 -242 230q-6 31 -6 59zM135 612l8 -30q25 -117 156 -183 q111 -55 244 -55q279 0 278 168q0 23 -6 45q-94 211 -403 211q-258 0 -277 -156z" />
<glyph unicode="&#xa8;" horiz-adv-x="438" d="M-199 1247q-8 31 29 31t45 -31l19 -94q8 -33 -29 -33t-45 33zM39 1247q-8 31 27 31q39 0 47 -31l18 -94q8 -33 -31 -33q-35 0 -43 33z" />
<glyph unicode="&#xa9;" horiz-adv-x="1146" d="M-133 1022q0 137 96 233q121 121 324 121q209 0 383 -121q182 -127 225 -325q10 -49 10 -94q0 -164 -133 -265q-121 -88 -291 -88q-215 0 -383 117q-178 125 -221 328q-10 49 -10 94zM-55 1010q0 -37 8 -80q37 -168 188 -275q143 -102 322 -102q145 0 248 74 q115 82 114 223q0 37 -8 78q-37 168 -185.5 272.5t-324.5 104.5q-147 0 -248 -72q-115 -82 -114 -223zM82 993q0 102 78 160q68 49 176 49q233 0 317 -217h-80q-61 145 -223 145q-82 0 -131 -36q-57 -41 -57 -119q0 -23 6 -51q23 -100 100.5 -158.5t182.5 -58.5 q135 0 149 155h84q-20 -227 -219 -227q-139 0 -242.5 78t-132.5 211q-8 37 -8 69z" />
<glyph unicode="&#xaa;" horiz-adv-x="774" d="M-154 1112q0 113 69 174.5t185 61.5q156 0 260 -101l-22 99h78l135 -631h-78l-20 90q-61 -104 -220 -105q-143 0 -244.5 90.5t-131.5 233.5q-10 47 -11 88zM-74 1096q0 -33 8 -72q23 -113 97 -180q76 -74 188 -74q88 0 141.5 51t53.5 137q0 31 -6 66q-55 254 -297 254 q-184 0 -185 -182z" />
<glyph unicode="&#xab;" horiz-adv-x="800" d="M6 586l287 231l16 -78l-215 -178l291 -180l16 -72l-383 226zM244 586l286 231l17 -78l-215 -178l291 -180l16 -72l-383 226z" />
<glyph unicode="&#xac;" horiz-adv-x="1232" d="M-45 618h1036l74 -344h-74l-61 281h-963z" />
<glyph unicode="&#xad;" horiz-adv-x="716" d="M-29 561h557l9 -41h-557z" />
<glyph unicode="&#xae;" horiz-adv-x="1112" d="M-154 1022q0 137 97 233q121 121 323 121q209 0 381 -121q182 -127 225 -325q10 -51 11 -99q0 -166 -133 -262q-117 -86 -291 -86q-211 0 -381 119q-178 125 -221 326q-10 49 -11 94zM-76 1012q0 -39 8 -82q37 -172 187 -277q141 -100 323 -100q145 0 248 72 q113 82 113 223q0 37 -8 80q-37 172 -189 276q-141 101 -321 101q-147 0 -248 -72q-113 -80 -113 -221zM113 1194h247q188 0 222 -152q4 -20 4 -41q0 -53 -39 -86q63 -37 80 -114l30 -148h-79l-31 146q-16 80 -125 80h-164l47 -226h-78zM207 1120l35 -168h159q104 0 105 66 q0 102 -129 102h-170z" />
<glyph unicode="&#xaf;" horiz-adv-x="641" d="M-211 1262h530l9 -39h-531z" />
<glyph unicode="&#xb0;" horiz-adv-x="860" d="M-125 1122q0 102 86 164q76 55 182 55q129 0 243 -75.5t138 -198.5q6 -31 6 -59q0 -102 -81 -161t-187 -59q-129 0 -237 76q-117 78 -144 201q-6 31 -6 57zM-51 1112q0 -121 110 -199q88 -61 191 -61q84 0 143 41q68 47 68 127q0 127 -113 201q-88 57 -190 57 q-82 0 -142 -41q-68 -47 -67 -125z" />
<glyph unicode="&#xb1;" horiz-adv-x="1290" d="M100 547h392l-72 340h74l71 -340h393l15 -68h-393l73 -346h-73l-74 346h-391zM205 63h858l16 -69h-858z" />
<glyph unicode="&#xb2;" horiz-adv-x="802" d="M-160 1141q0 215 269 215q137 0 235 -51q121 -66 121 -193q0 -84 -111 -154l-157 -98q-195 -121 -183 -266h604l17 -70h-686q-10 43 -10 82q0 125 90 223q47 51 237 170q131 80 117 144q-29 141 -250 141q-209 0 -209 -166q0 -35 8 -76h-79q-12 53 -13 99z" />
<glyph unicode="&#xb3;" horiz-adv-x="872" d="M-127 1141q0 215 293 215q129 0 227 -45q121 -55 144 -166q6 -25 6 -47q0 -92 -94 -131q154 -55 186 -205q6 -27 6 -49q0 -104 -106 -156q-82 -41 -199 -41q-158 0 -268 64q-129 76 -160 219l-8 37h82l12 -54q20 -100 121 -151q84 -43 198 -43q90 0 156 26q90 37 90 115 q0 16 -4 33q-37 170 -289 170h-88l-14 69h90q207 0 207 113q0 98 -119 143q-70 27 -158 27q-229 0 -229 -166q0 -29 8 -63h-80q-10 47 -10 86z" />
<glyph unicode="&#xb4;" horiz-adv-x="434" d="M-176 1114q-2 12 6 23l182 227q12 14 31 14q37 0 43 -32q4 -12 -4 -25l-184 -225q-10 -12 -27 -13q-39 0 -47 31z" />
<glyph unicode="&#xb5;" d="M-109 999h74l117 -544q88 -416 469 -416q281 0 280 219q0 41 -10 86l-139 655h74l141 -657q10 -53 10 -100q1 -149 -116 -219q-31 -18 -25 -54q18 -86 184 -86l17 -73q-92 0 -170 34q-98 41 -115 119l-4 17q-51 -10 -113 -11q-276 0 -424 205l111 -524h-74z" />
<glyph unicode="&#xb6;" horiz-adv-x="1015" d="M-98 1040q0 168 133 265q121 86 295 86q8 0 14 -2h266l353 -1661h-74l-338 1593h-145l337 -1593h-73l-164 774q-207 -8 -379 117.5t-215 326.5q-10 49 -10 94z" />
<glyph unicode="&#xb7;" horiz-adv-x="428" d="M53 719q-6 33 31 33t43 -33l25 -111q6 -35 -31 -35t-43 35z" />
<glyph unicode="&#xb8;" horiz-adv-x="530" d="M113 -322l20 62q109 -33 174 -33q152 0 135 84q-12 51 -125 62q-57 4 -88 -13l-8 35l-16 143h74l18 -102h16q184 0 213 -133q2 -16 2 -31q1 -108 -200 -108q-78 0 -215 34z" />
<glyph unicode="&#xb9;" horiz-adv-x="587" d="M-219 1104l313 233h66l172 -805h-84l-150 701l-180 -129h-137z" />
<glyph unicode="&#xba;" horiz-adv-x="845" d="M-147 1108q0 117 88 180q78 55 200 55q150 0 264.5 -83.5t145.5 -229.5q8 -41 8 -78q0 -117 -90 -180q-78 -55 -201 -55q-152 0 -264.5 84t-142.5 229q-8 41 -8 78zM-76 1092q0 -29 6 -62q25 -119 117 -186q86 -66 209 -66q100 0 162 43q72 51 71 146q0 29 -8 63 q-25 119 -116.5 185.5t-214.5 66.5q-96 0 -158 -47q-68 -51 -68 -143z" />
<glyph unicode="&#xbb;" horiz-adv-x="780" d="M-43 817l385 -231l12 -51l-288 -226l-17 72l215 180l-291 178zM195 817l385 -231l12 -51l-289 -226l-16 72l215 180l-291 178z" />
<glyph unicode="&#xbc;" horiz-adv-x="1671" d="M-162 1108l297 227h62l172 -809h-74l-152 717l-184 -135h-121zM387 0l393 1421h78l-393 -1421h-78zM696 274l211 553h78l-186 -491h434l-105 493l72 -4l105 -489h188l14 -62h-188l57 -274h-71l-58 274h-551z" />
<glyph unicode="&#xbd;" horiz-adv-x="1644" d="M-184 1108l297 227h61l172 -809h-74l-151 717l-182 -135h-123zM365 0l395 1421h78l-396 -1421h-77zM776 618q0 217 262 218q137 0 232 -54q119 -63 119 -190q0 -70 -101 -146q-80 -53 -160 -104q-201 -135 -184 -281h602l13 -61h-678q-8 41 -9 78q0 193 197 315l162 101 q100 63 86 131q-31 150 -256 149q-215 0 -215 -174q0 -35 10 -76h-70q-10 51 -10 94z" />
<glyph unicode="&#xbe;" horiz-adv-x="1855" d="M-100 1137q0 217 290 217q131 0 224 -43q119 -55 141 -168q6 -23 6 -43q0 -96 -108 -139q172 -55 204 -205q4 -25 5 -47q0 -104 -105 -156q-82 -41 -197 -41q-362 0 -421 281l-9 32h70l12 -51q20 -104 125 -158q86 -43 203 -43q94 0 160 29q90 39 90 119q0 16 -2 35 q-39 176 -299 176h-82l-12 63h84q211 0 210 115q0 16 -4 33q-31 147 -280 147q-233 0 -234 -168q0 -29 6 -63h-69q-8 41 -8 78zM573 0l396 1421h78l-396 -1421h-78zM883 274l213 553h78l-189 -491h434l-104 493l71 -4l105 -489h188l15 -62h-189l58 -274h-72l-57 274h-551z " />
<glyph unicode="&#xbf;" d="M31 205q0 98 63 182q53 63 160 195q66 86 65 180q0 29 -6 57l-14 64h76l12 -54q8 -39 8 -77q0 -156 -139 -293q-92 -92 -121 -142q-45 -80 -22 -178q29 -137 157 -207q109 -59 262 -59q334 0 334 293q0 31 -4 65l76 -43q29 -383 -393 -383q-180 0 -316 80 q-156 90 -190 254q-8 33 -8 66zM238 1190q-8 37 26 37q39 0 47 -37l27 -131q8 -35 -31 -35q-35 0 -43 35z" />
<glyph unicode="&#xc0;" horiz-adv-x="1384" d="M27 0l342 1395h75l912 -1395h-80l-295 449h-762l-106 -449h-86zM182 1749q20 25 56 -4l286 -248q33 -31 4 -51q-25 -18 -53 6l-285 248q-33 29 -8 49zM238 518h700l-508 774z" />
<glyph unicode="&#xc1;" horiz-adv-x="1384" d="M27 0l342 1395h75l912 -1395h-80l-295 449h-762l-106 -449h-86zM227 1477q-4 14 4 24l181 248q12 14 28 14q37 0 45 -34q2 -14 -6 -25l-178 -248q-10 -14 -29 -14q-39 0 -45 35zM238 518h700l-508 774z" />
<glyph unicode="&#xc2;" horiz-adv-x="1384" d="M27 0l342 1395h75l912 -1395h-80l-295 449h-762l-106 -449h-86zM139 1434l158 301h59l289 -301h-88l-215 223l-121 -223h-82zM238 518h700l-508 774z" />
<glyph unicode="&#xc3;" horiz-adv-x="1384" d="M27 0l342 1393h75l912 -1393h-80l-295 449h-762l-106 -449h-86zM98 1524q0 51 38 83.5t91 32.5q35 0 153 -55t144 -55q68 0 68 84q0 16 -4 39l74 -37q8 -68 -28 -111t-95 -43q-39 0 -158 55.5t-143 55.5q-66 0 -66 -84q0 -18 4 -41l-76 43q-2 16 -2 33zM238 516h700 l-508 774z" />
<glyph unicode="&#xc4;" horiz-adv-x="1384" d="M27 0l342 1393h75l912 -1393h-80l-295 449h-762l-106 -449h-86zM203 1599q-8 37 28 37q37 0 45 -37l23 -110q8 -37 -29 -37t-45 37zM238 516h700l-508 774zM440 1599q-8 37 27 37q39 0 47 -37l23 -110q8 -37 -31 -37q-35 0 -43 37z" />
<glyph unicode="&#xc5;" horiz-adv-x="1384" d="M27 0l342 1395h75l912 -1395h-80l-295 449h-762l-106 -449h-86zM170 1661q0 57 45 94q39 33 98 33q76 0 136.5 -45t74.5 -117q4 -18 4 -37q0 -57 -42 -91t-103 -34q-82 0 -147.5 57.5t-65.5 139.5zM238 518h700l-508 774zM250 1647q0 -53 45 -86q33 -25 74 -25 q82 0 84 63q0 12 -4 27q-19 90 -119 90q-80 0 -80 -69z" />
<glyph unicode="&#xc6;" horiz-adv-x="2205" d="M-61 0l956 1389h928l14 -68h-848l119 -561h94v-2h645l15 -66h-740l133 -624h859l14 -68h-934l-147 692h-543l-473 -692h-92zM553 760h479l-110 530z" />
<glyph unicode="&#xc7;" horiz-adv-x="1472" d="M-76 874q0 199 107 334q156 195 493 195q391 0 621 -252l-53 -41q-201 225 -553 225q-301 0 -443 -174q-98 -123 -98 -301q0 -80 18 -170q63 -293 269.5 -467t505.5 -174q338 0 458 227l74 -40q-139 -256 -516 -256q-330 0 -561.5 189t-300.5 513q-20 102 -21 192z M625 -317l20 63q111 -35 176 -35q133 0 133 70q0 74 -125 84q-61 6 -90 -10l-8 34l-16 154h73l19 -111q6 2 16 2q184 0 215 -143q4 -18 4 -33q1 -114 -200 -114q-78 0 -217 39z" />
<glyph unicode="&#xc8;" horiz-adv-x="1155" d="M-195 1395h1026l15 -68h-955l121 -567h846l14 -66h-845l133 -626h964l15 -68h-1037zM68 1731q23 23 55 -5l287 -247q31 -29 6 -52t-58 7l-282 245q-37 31 -8 52z" />
<glyph unicode="&#xc9;" horiz-adv-x="1155" d="M-195 1395h1026l15 -68h-955l121 -567h846l14 -66h-845l133 -626h964l15 -68h-1037zM113 1454q-2 14 6 25l180 247q12 12 29 13q37 0 43 -35q4 -14 -4 -25l-181 -245q-10 -14 -26 -15q-39 0 -47 35z" />
<glyph unicode="&#xca;" horiz-adv-x="1155" d="M-195 1395h1026l15 -68h-955l121 -567h846l14 -66h-845l133 -626h964l15 -68h-1037zM14 1454l158 301h59l291 -301h-90l-215 223l-121 -223h-82z" />
<glyph unicode="&#xcb;" horiz-adv-x="1155" d="M-195 1393h1026l15 -68h-955l121 -565h846l14 -66h-845l133 -626h964l15 -68h-1037zM80 1616q-8 37 26 37q39 0 48 -37l24 -111q8 -37 -31 -37q-35 0 -43 37zM315 1616q-8 37 29 37t45 -37l25 -111q8 -37 -29 -37t-45 37z" />
<glyph unicode="&#xcc;" horiz-adv-x="274" d="M-379 1761q27 23 57 -4l283 -248q33 -28 6 -51q-25 -20 -55 6l-283 246q-35 29 -8 51zM-195 1395h74l297 -1395h-74z" />
<glyph unicode="&#xcd;" horiz-adv-x="274" d="M-332 1477q-4 14 4 24l178 248q12 14 31 14q37 0 45 -34q2 -14 -6 -25l-178 -248q-10 -14 -29 -14q-39 0 -45 35zM-195 1395h74l297 -1395h-74z" />
<glyph unicode="&#xce;" horiz-adv-x="274" d="M-424 1446l158 301h59l291 -301h-88l-215 223l-123 -223h-82zM-195 1395h74l297 -1395h-74z" />
<glyph unicode="&#xcf;" horiz-adv-x="274" d="M-367 1632q-8 35 33 35q35 0 43 -35l25 -110q8 -39 -29 -39q-41 0 -49 39zM-195 1393h74l297 -1393h-74zM-125 1632q-8 35 27 35q37 0 45 -35l24 -110q9 -39 -30 -39q-35 0 -43 39z" />
<glyph unicode="&#xd0;" horiz-adv-x="1392" d="M-193 1389h543q334 0 547 -187q207 -178 277 -510q23 -100 22 -186q0 -260 -188 -391q-165 -115 -441 -115h-465l-141 662h-76l-14 69h76zM-104 1321l124 -590h406l14 -69h-405l127 -594h397q248 0 391 98q170 115 170 348q0 82 -20 178q-63 301 -246 461 q-191 168 -492 168h-466z" />
<glyph unicode="&#xd1;" horiz-adv-x="1392" d="M-195 1393h86q213 -219 649.5 -643t655.5 -646l-274 1289h73l297 -1393h-88l-1302 1292l274 -1292h-74zM86 1509q0 49 39 84t88 35q37 0 155.5 -55t143.5 -55q70 0 70 84q0 16 -4 38l71 -34q8 -68 -27 -112t-94 -44q-41 0 -159.5 55.5t-143.5 55.5q-66 0 -65 -84 q0 -18 4 -41l-74 43q-4 16 -4 30z" />
<glyph unicode="&#xd2;" horiz-adv-x="1550" d="M-113 889q0 254 172 383q156 117 422 117q340 0 569.5 -180.5t301.5 -512.5q23 -106 22 -198q-2 -254 -174 -389q-156 -123 -422 -123q-338 0 -568 189.5t-300 520.5q-23 102 -23 193zM-37 872q0 -82 21 -176q61 -297 270 -470t510 -173q244 0 385 113q152 125 149 358 q-2 80 -20 172q-63 299 -269 462t-513 163q-240 0 -377 -104q-156 -117 -156 -345zM254 1731q-6 37 31 36q16 0 32 -14l285 -248q33 -28 4 -51q-23 -18 -51 6l-287 246q-10 12 -14 25z" />
<glyph unicode="&#xd3;" horiz-adv-x="1550" d="M-113 889q0 254 172 383q156 117 422 117q340 0 569.5 -180.5t301.5 -510.5q20 -104 20 -196q0 -256 -170 -391q-156 -125 -424 -125q-338 0 -568 189.5t-300 522.5q-23 102 -23 191zM-37 874q0 -82 21 -176q61 -297 270 -471t510 -174q240 0 379 111q152 119 155 348 q0 86 -20 186q-63 297 -270 460t-512 163q-238 0 -377 -104q-156 -117 -156 -343zM305 1487q-4 16 4 26l178 248q18 25 56 6q35 -25 12 -53l-180 -246q-12 -12 -27 -12q-37 0 -43 31z" />
<glyph unicode="&#xd4;" horiz-adv-x="1550" d="M-113 889q0 254 172 383q156 117 422 117q340 0 569.5 -180.5t301.5 -510.5q20 -104 20 -196q0 -256 -170 -391q-156 -125 -424 -125q-338 0 -568 189.5t-300 522.5q-23 102 -23 191zM-37 874q0 -82 21 -176q61 -297 270 -471t510 -174q240 0 379 111q152 119 155 348 q0 86 -20 186q-63 297 -270 460t-512 163q-238 0 -377 -104q-156 -117 -156 -343zM209 1470l156 299h59l291 -299h-88l-215 222l-121 -222h-82z" />
<glyph unicode="&#xd5;" horiz-adv-x="1550" d="M-113 889q0 254 172 383q156 117 422 117q338 0 569.5 -181.5t301.5 -511.5q20 -102 22 -192q0 -256 -170 -393q-158 -125 -426 -125q-338 0 -568 189.5t-300 520.5q-23 102 -23 193zM-37 870q0 -80 21 -174q63 -297 271 -470t509 -173q244 0 385 113q152 125 149 358 q-2 80 -20 172q-63 299 -269 461t-513 162q-240 0 -377 -105q-156 -117 -156 -344zM160 1552q0 49 39 84t90 35q35 0 153.5 -55t143.5 -55q70 0 69 84q0 16 -4 38l74 -36q6 -68 -30 -111t-95 -43q-37 0 -155.5 55.5t-143.5 55.5q-80 0 -65 -125l-72 43q-4 16 -4 30z" />
<glyph unicode="&#xd6;" horiz-adv-x="1550" d="M-113 885q-2 254 172 385q156 117 422 116q338 0 569.5 -180t301.5 -510q20 -102 22 -192q0 -256 -170 -393q-158 -125 -426 -125q-338 0 -568 189.5t-300 520.5q-23 102 -23 189zM-37 870q0 -80 21 -174q63 -297 271 -470t509 -173q244 0 385 113q152 125 149 358 q-2 80 -20 172q-63 299 -269 461t-513 162q-240 0 -377 -105q-156 -117 -156 -344zM276 1632q-8 35 27 35q37 0 45 -35l25 -110q8 -39 -31 -39q-35 0 -43 39zM512 1632q-8 35 29 35q35 0 43 -35l24 -110q9 -39 -28 -39t-45 39z" />
<glyph unicode="&#xd7;" horiz-adv-x="1003" d="M14 752l43 47l326 -238l225 238l64 -47l-228 -236l332 -244l-45 -43l-328 238l-229 -236l-61 45l225 240z" />
<glyph unicode="&#xd8;" horiz-adv-x="1550" d="M-113 885q0 254 174 383q156 117 420 116q158 0 293 -38l27 96h78l-33 -123q410 -168 506 -625q23 -104 22 -194q0 -256 -172 -391q-156 -123 -424 -123q-160 0 -297 43l-24 -88h-78l33 116q-117 47 -215 133q-221 195 -287 504q-23 102 -23 191zM-37 866q0 -80 21 -172 q57 -274 260 -452q92 -82 184 -119l328 1159q-117 33 -258 33q-240 0 -379 -105q-156 -117 -156 -344zM500 94q121 -41 264 -41q244 0 383 113q152 121 151 354q0 80 -20 174q-88 418 -453 563z" />
<glyph unicode="&#xd9;" horiz-adv-x="1359" d="M-195 1395h74l187 -871q98 -471 602 -471q422 0 422 324q0 63 -17 139l-186 879h74l186 -877q20 -92 20 -168q0 -364 -485 -364q-291 0 -457 125q-174 131 -233 411zM168 1741q27 23 57 -4l283 -246q35 -30 8 -53q-20 -16 -55 6l-287 248q-31 27 -6 49z" />
<glyph unicode="&#xda;" horiz-adv-x="1359" d="M-195 1395h74l187 -871q98 -471 602 -471q422 0 422 324q0 63 -17 139l-186 879h74l186 -877q20 -92 20 -168q0 -364 -485 -364q-291 0 -457 125q-174 131 -233 411zM213 1468q-4 16 4 27l178 246q10 14 31 14q37 0 43 -35q4 -14 -4 -24l-180 -248q-12 -12 -29 -12 q-37 0 -43 32z" />
<glyph unicode="&#xdb;" horiz-adv-x="1359" d="M-195 1395h74l187 -871q98 -471 602 -471q422 0 422 324q0 63 -17 139l-186 879h74l186 -877q20 -92 20 -168q0 -364 -485 -364q-291 0 -457 125q-174 131 -233 411zM119 1450l155 301h60l293 -301h-88l-220 223l-118 -223h-82z" />
<glyph unicode="&#xdc;" horiz-adv-x="1359" d="M-195 1393h74l187 -869q98 -471 602 -471q422 0 422 324q0 63 -17 139l-186 877h74l186 -875q20 -92 20 -168q0 -364 -485 -364q-291 0 -457 125q-174 131 -233 411zM180 1632q-8 35 27 35q39 0 47 -35l22 -110q9 -39 -30 -39q-35 0 -43 39zM416 1632q-8 35 28 35 q37 0 45 -35l23 -110q8 -39 -29 -39t-45 39z" />
<glyph unicode="&#xdd;" horiz-adv-x="1345" d="M-299 1395h94l719 -647l447 647h92l-486 -715l146 -680h-74l-145 680zM205 1477q-4 14 4 24l180 248q12 14 31 14q37 0 45 -34q2 -14 -6 -25l-180 -248q-10 -14 -29 -14q-39 0 -45 35z" />
<glyph unicode="&#xde;" horiz-adv-x="870" d="M-190 1389h73l66 -310h305q291 0 369 -368q16 -76 16 -133q0 -228 -231 -228h-304l74 -350h-74zM-37 1012l127 -596h305q166 0 166 178q0 51 -14 117q-64 301 -281 301h-303z" />
<glyph unicode="&#xdf;" horiz-adv-x="1034" d="M-156 887h72q-18 90 -41 217q-6 39 -6 72q0 238 315 237q432 0 486 -295q6 -35 6 -63q0 -164 -182 -207q115 -31 225 -131q150 -137 184 -303q14 -68 15 -125q-1 -350 -486 -350l-14 67q426 0 424 299q0 49 -13 109q-43 199 -215 307q-154 96 -368 96l-15 68 q166 0 234 18q141 35 141 154q0 25 -6 53q-31 141 -143 195q-86 41 -262 41q-250 0 -250 -203q0 -41 10 -92l223 -1053h-74l-174 819h-71z" />
<glyph unicode="&#xe0;" horiz-adv-x="1130" d="M-78 653q0 131 62 226q102 154 338 153q301 0 475 -244l-52 240h74l219 -1028h-73l-47 225q-80 -248 -381 -248q-229 0 -394 150q-156 143 -204 375q-16 80 -17 151zM-4 631q0 -61 14 -129q43 -201 172 -324q141 -133 338 -133t289 135q61 88 61 207q0 53 -12 115 q-45 211 -180 332q-141 129 -352 129q-197 0 -281 -138q-49 -84 -49 -194zM86 1368q23 25 55 -4l285 -248q33 -26 4 -49q-20 -18 -51 4l-287 246q-35 31 -6 51z" />
<glyph unicode="&#xe1;" horiz-adv-x="1130" d="M-53 653q0 131 61 226q102 154 338 153q301 0 475 -244l-51 240h74l219 -1028h-74l-47 225q-80 -248 -381 -248q-229 0 -393 150q-156 143 -205 375q-16 80 -16 151zM20 631q0 -61 15 -129q43 -201 172 -324q141 -133 338 -133t289 135q61 88 61 207q0 53 -12 115 q-45 211 -181 332q-141 129 -352 129q-197 0 -280 -138q-49 -84 -50 -194zM156 1092q-4 14 4 24l178 248q10 14 31 14q37 0 45 -35q2 -12 -6 -26l-183 -246q-12 -12 -26 -12q-37 0 -43 33z" />
<glyph unicode="&#xe2;" horiz-adv-x="1130" d="M-53 653q0 131 61 226q102 154 338 153q301 0 475 -244l-51 240h74l219 -1028h-74l-47 225q-80 -248 -381 -248q-229 0 -393 150q-156 143 -205 375q-16 80 -16 151zM20 631q0 -61 15 -129q43 -201 172 -324q141 -133 338 -133t289 135q61 88 61 207q0 53 -12 115 q-45 211 -181 332q-141 129 -352 129q-197 0 -280 -138q-49 -84 -50 -194zM59 1081l156 299h59l291 -299h-88l-215 222l-121 -222h-82z" />
<glyph unicode="&#xe3;" horiz-adv-x="1130" d="M-53 651q0 135 61 228q100 152 338 151q301 0 475 -242l-49 238h74l217 -1026h-74l-47 225q-80 -248 -381 -248q-229 0 -393 150q-156 143 -205 373q-16 82 -16 151zM8 1163q0 49 38 84t89 35q37 0 155 -55.5t142 -55.5q72 0 72 84q0 16 -4 39l71 -37q8 -68 -29 -110.5 t-96 -42.5q-39 0 -157.5 55t-141.5 55q-80 0 -65 -124l-72 43q-2 16 -2 30zM20 629q0 -61 15 -129q43 -201 172 -324q139 -131 338 -131q197 0 289 131q61 90 61 209q0 55 -12 115q-45 209 -181 334q-143 129 -352 129q-195 0 -278 -140q-51 -84 -52 -194z" />
<glyph unicode="&#xe4;" horiz-adv-x="1130" d="M-53 651q0 131 61 226q102 154 338 153q301 0 475 -242l-49 238h74l217 -1026h-74l-47 225q-80 -248 -381 -248q-229 0 -393 150q-156 143 -205 373q-16 80 -16 151zM20 629q0 -61 15 -129q43 -201 172 -324q139 -131 338 -131q197 0 289 131q61 90 61 209q0 55 -12 115 q-45 209 -181 334q-143 129 -352 129q-195 0 -278 -140q-51 -84 -52 -194zM150 1243q-8 35 26 35q39 0 47 -35l23 -110q8 -39 -31 -39q-35 0 -43 39zM385 1243q-8 35 29 35t45 -35l22 -110q9 -39 -28 -39t-45 39z" />
<glyph unicode="&#xe5;" horiz-adv-x="1130" d="M-55 653q0 135 63 228q100 152 338 151q301 0 475 -241l-51 237h74l219 -1028h-74l-49 227q-78 -250 -379 -250q-229 0 -393 150q-156 143 -205 375q-18 82 -18 151zM20 631q0 -61 15 -129q43 -201 172 -324q141 -133 338 -133t289 135q61 88 61 207q0 53 -12 115 q-45 209 -181 334q-143 129 -352 129q-197 0 -280 -140q-49 -84 -50 -194zM102 1309q0 57 43 91t103 34q84 0 148.5 -58.5t64.5 -140.5q0 -57 -42.5 -91t-101.5 -34q-76 0 -136 45t-75 117q-4 18 -4 37zM182 1292q0 -45 36 -76.5t83 -31.5q82 0 82 69q0 51 -45 84 q-33 25 -74 25q-82 0 -82 -70z" />
<glyph unicode="&#xe6;" horiz-adv-x="2015" d="M-78 647q0 133 62 225q102 152 340 152q301 0 475 -242l-51 238h73l49 -234q18 45 50 88q113 150 329 150q229 0 394 -131t212 -356l13 -58l-932 -2l8 -35q84 -397 508 -397q135 0 225 57q102 66 123 193h76q-33 -317 -414 -318q-299 0 -463 209l39 -186h-73l-47 225 q-80 -248 -381 -248q-227 0 -394 150q-156 141 -204 371q-16 80 -17 149zM-4 625q0 -59 14 -127q43 -201 174 -322q137 -131 336 -131q197 0 291 133q61 88 61 205q0 55 -14 115q-43 211 -178 331q-143 127 -352 127q-197 0 -281 -137q-51 -82 -51 -194zM909 649 q0 -41 11 -88l2 -16h845q-43 188 -178 299.5t-325 111.5q-176 0 -279 -110q-76 -82 -76 -197z" />
<glyph unicode="&#xe7;" d="M-66 629q0 193 119 297q115 98 314 98q162 0 290.5 -78t196.5 -221l-61 -35q-123 266 -416 266q-170 0 -268.5 -88t-98.5 -252q0 -66 15 -139q43 -201 183 -319.5t343 -118.5q150 0 235 70q94 76 93 221l77 -31q-4 -164 -116 -252q-103 -78 -273 -78q-236 0 -401.5 138.5 t-214.5 369.5q-16 82 -17 152zM432 -319l19 65q113 -35 176 -35q135 0 135 70q0 74 -127 84q-59 4 -90 -12l-6 34l-17 154h74l18 -109h15q184 0 215 -141q2 -18 4 -33q0 -114 -201 -114q-76 0 -215 37z" />
<glyph unicode="&#xe8;" d="M-84 647q2 137 72 238q104 147 336 147q231 0 395 -133t213 -358l12 -58l-936 -2q104 -436 518 -436q137 0 228 59q100 66 120 195h76q-31 -322 -413 -322q-246 0 -404 144q-150 135 -201 381q-16 78 -16 145zM-12 629q0 -39 6 -80h850q-43 188 -179.5 301t-326.5 113 q-162 0 -256 -87.5t-94 -246.5zM98 1341q-8 37 29 37q16 0 33 -14l286 -248q34 -28 5 -51q-8 -6 -19 -6q-16 0 -33 12l-288 246q-10 12 -13 24z" />
<glyph unicode="&#xe9;" d="M-84 647q2 137 72 238q104 147 336 147q231 0 395 -133t213 -358l12 -58l-936 -2q104 -436 518 -436q137 0 228 59q100 66 120 195h76q-31 -322 -413 -322q-246 0 -404 144q-150 135 -201 381q-16 78 -16 145zM-12 629q0 -39 6 -80h850q-43 188 -179.5 301t-326.5 113 q-162 0 -256 -87.5t-94 -246.5zM150 1096q-2 14 6 24l178 248q18 25 57 4q14 -10 17 -24q1 -11 -5 -25l-184 -248q-10 -12 -24 -12q-37 0 -45 33z" />
<glyph unicode="&#xea;" d="M-84 647q2 137 72 238q104 147 336 147q231 0 395 -133t213 -358l12 -58l-936 -2q104 -436 518 -436q137 0 228 59q100 66 120 195h76q-31 -322 -413 -322q-246 0 -404 144q-150 135 -201 381q-16 78 -16 145zM-12 629q0 -39 6 -80h850q-43 188 -179.5 301t-326.5 113 q-162 0 -256 -87.5t-94 -246.5zM55 1081l158 299h59l289 -299h-88l-215 222l-121 -222h-82z" />
<glyph unicode="&#xeb;" d="M-84 643q0 139 72 240q104 147 336 147q231 0 395 -132t213 -357l12 -60l-936 -2q104 -434 518 -434q135 0 226 59q102 66 122 193h76q-31 -319 -413 -320q-244 0 -402 144q-150 135 -203 379q-16 76 -16 143zM-12 629q0 -39 6 -82h850q-43 188 -178 302t-328 114 q-162 0 -256 -87.5t-94 -246.5zM121 1243q-8 35 29 35t45 -35l22 -110q8 -39 -29 -39t-45 39zM358 1243q-8 35 27 35q39 0 47 -35l23 -110q8 -39 -31 -39q-35 0 -43 39z" />
<glyph unicode="&#xec;" horiz-adv-x="278" d="M-293 1368q20 25 53 -4l287 -248q33 -29 4 -49q-23 -16 -51 4l-287 246q-35 29 -6 51zM-111 1008h74l215 -1008h-74z" />
<glyph unicode="&#xed;" horiz-adv-x="278" d="M-248 1085q-2 12 6 23l181 248q10 14 28 14q37 0 43 -35q4 -14 -4 -24l-180 -246q-10 -14 -27 -14q-39 0 -47 34zM-111 1008h74l215 -1008h-74z" />
<glyph unicode="&#xee;" horiz-adv-x="278" d="M-328 1081l146 299h59l277 -299h-86l-203 219l-113 -219h-80zM-111 1008h74l215 -1008h-74z" />
<glyph unicode="&#xef;" horiz-adv-x="278" d="M-274 1243q-8 35 30 35q37 0 45 -35l23 -110q8 -39 -29 -39q-39 0 -47 39zM-109 1006h74l213 -1006h-74zM-35 1243q-8 35 27 35q39 0 47 -35l22 -110q9 -39 -30 -39q-35 0 -43 39z" />
<glyph unicode="&#xf0;" horiz-adv-x="1155" d="M-78 653q0 131 62 226q102 154 338 153q301 0 475 -244l-82 386h-680l-15 71h680l-30 144h73l295 -1389h-73l-47 225q-80 -248 -381 -248q-229 0 -394 150q-156 143 -204 375q-16 80 -17 151zM-4 631q0 -61 14 -129q43 -201 172 -324q141 -133 338 -133t289 135 q61 88 61 207q0 53 -12 115q-45 211 -180 334q-143 129 -352 129q-197 0 -281 -140q-49 -84 -49 -194z" />
<glyph unicode="&#xf1;" d="M-109 1006h74l37 -181q59 205 340 205q178 0 307 -86q139 -94 174 -262l146 -682h-74l-141 662q-31 145 -137.5 223t-258.5 78q-143 0 -227 -76t-84 -217q0 -49 10 -105l121 -565h-74zM8 1161q0 47 39 84t88 37q37 0 155 -55.5t144 -55.5q70 0 70 84q0 16 -4 39l71 -37 q10 -68 -26.5 -110.5t-95.5 -42.5q-39 0 -158 55t-144 55q-66 0 -65 -84q0 -18 4 -40l-76 43q-2 14 -2 28z" />
<glyph unicode="&#xf2;" horiz-adv-x="1116" d="M-78 645q0 186 115 286.5t305 100.5q238 0 410 -147q166 -145 217 -381q14 -76 14 -142q0 -184 -114.5 -284.5t-307.5 -100.5q-238 0 -405.5 145.5t-216.5 381.5q-16 76 -17 141zM-2 631q0 -59 14 -127q43 -205 187.5 -332t349.5 -127q164 0 261 88t97 248q0 57 -12 123 q-45 209 -188.5 334t-352.5 125q-164 0 -260 -86t-96 -246zM127 1368q23 25 55 -4l285 -248q33 -26 4 -49q-20 -18 -51 4l-287 246q-35 31 -6 51z" />
<glyph unicode="&#xf3;" horiz-adv-x="1116" d="M-78 645q0 186 115 286.5t305 100.5q238 0 410 -147q166 -145 217 -381q14 -76 14 -142q0 -184 -114.5 -284.5t-307.5 -100.5q-238 0 -405.5 145.5t-216.5 381.5q-16 76 -17 141zM-2 631q0 -59 14 -127q43 -205 187.5 -332t349.5 -127q164 0 261 88t97 248q0 57 -12 123 q-45 209 -188.5 334t-352.5 125q-164 0 -260 -86t-96 -246zM172 1085q-2 14 4 23l180 248q10 14 31 14q37 0 43 -35q4 -14 -4 -24l-182 -246q-10 -14 -27 -14q-37 0 -45 34z" />
<glyph unicode="&#xf4;" horiz-adv-x="1116" d="M-78 645q0 186 115 286.5t305 100.5q238 0 410 -147q166 -145 217 -381q14 -76 14 -142q0 -184 -114.5 -284.5t-307.5 -100.5q-238 0 -405.5 145.5t-216.5 381.5q-16 76 -17 141zM-2 631q0 -59 14 -127q43 -205 187.5 -332t349.5 -127q164 0 261 88t97 248q0 57 -12 123 q-45 209 -188.5 334t-352.5 125q-164 0 -260 -86t-96 -246zM76 1081l157 299h60l291 -299h-88l-215 222l-123 -222h-82z" />
<glyph unicode="&#xf5;" horiz-adv-x="1116" d="M-78 643q0 184 117 289q113 98 303 98q238 0 410 -147q166 -145 217 -381q16 -74 16 -140q0 -184 -115.5 -284.5t-308.5 -100.5q-238 0 -405.5 144.5t-216.5 380.5q-16 76 -17 141zM-2 629q0 -59 14 -127q43 -203 188.5 -330t348.5 -127q162 0 261 89t99 247 q0 55 -14 121q-45 209 -188.5 335t-352.5 126q-164 0 -260 -87.5t-96 -246.5zM23 1165q0 51 37.5 84t91.5 33q35 0 152.5 -55.5t144.5 -55.5q76 0 69 123l68 -37q8 -68 -28 -110.5t-95 -42.5q-39 0 -158 55t-141 55q-68 0 -68 -79q0 -20 4 -45l-75 43q-2 16 -2 32z" />
<glyph unicode="&#xf6;" horiz-adv-x="1116" d="M-78 643q0 184 117 289q113 98 303 98q238 0 410 -147q166 -145 217 -381q16 -74 16 -140q0 -184 -115.5 -284.5t-308.5 -100.5q-238 0 -405.5 144.5t-216.5 380.5q-16 76 -17 141zM-2 629q0 -59 14 -127q43 -203 188.5 -330t348.5 -127q162 0 261 89t99 247 q0 55 -14 121q-45 209 -188.5 335t-352.5 126q-164 0 -260 -87.5t-96 -246.5zM141 1243q-8 35 27 35q39 0 47 -35l23 -110q8 -39 -31 -39q-35 0 -43 39zM377 1243q-8 35 29 35t45 -35l22 -110q8 -39 -29 -39t-45 39z" />
<glyph unicode="&#xf7;" horiz-adv-x="1212" d="M-25 526h1008l14 -67h-1007zM406 780q-8 35 26 35q39 0 47 -35l27 -127q8 -37 -31 -37q-35 0 -43 37zM504 315q-6 35 28 35q39 0 46 -35l26 -127q8 -36 -31 -36q-35 0 -43 36z" />
<glyph unicode="&#xf8;" horiz-adv-x="1116" d="M-78 641q0 184 119 287q113 98 303 98q106 0 201 -31l35 129h77l-41 -157q78 -37 146 -99q160 -145 207 -368q16 -74 16 -140q0 -184 -117 -284.5t-305 -100.5q-117 0 -217 37l-31 -108h-77l38 137q-270 141 -337 459q-16 76 -17 141zM-2 627q0 -59 14 -127 q57 -264 281 -394l233 828q-80 24 -170 24q-166 0 -262 -86t-96 -245zM360 76q88 -33 191 -33q162 0 260 87t98 247q0 57 -14 123q-39 186 -180 317q-61 57 -121 86z" />
<glyph unicode="&#xf9;" d="M-111 1008h74l141 -658q31 -150 140 -229q102 -76 258 -76q309 0 309 289q0 57 -14 127l-117 547h74l215 -1008h-74l-39 182q-63 -205 -340 -205q-186 0 -316 95.5t-169 275.5zM109 1360q20 25 53 -4l287 -248q33 -29 4 -49q-23 -16 -52 4l-286 248q-33 29 -6 49z" />
<glyph unicode="&#xfa;" d="M-111 1008h74l141 -658q31 -150 140 -229q102 -76 258 -76q309 0 309 289q0 57 -14 127l-117 547h74l215 -1008h-74l-39 182q-63 -205 -340 -205q-188 0 -315 95q-133 98 -170 278zM150 1094q-2 12 6 22l178 248q10 14 31 14q37 0 45 -35q2 -16 -7 -26l-178 -244 q-12 -14 -28 -14q-39 0 -47 35z" />
<glyph unicode="&#xfb;" d="M-111 1008h74l139 -656q66 -307 400 -307q309 0 309 289q0 57 -14 127l-117 547h74l215 -1008h-74l-39 182q-63 -205 -340 -205q-188 0 -315 95q-133 98 -170 278zM55 1081l158 299h59l289 -299h-88l-215 222l-121 -222h-82z" />
<glyph unicode="&#xfc;" d="M-109 1006h74l139 -656q31 -150 140 -229q102 -76 258 -76q311 0 311 287q0 57 -16 129l-115 545h74l213 -1006h-74l-39 180q-63 -203 -340 -203q-186 0 -316 95.5t-169 275.5zM119 1243q-8 35 28 35q37 0 46 -35l22 -110q8 -39 -29 -39t-45 39zM356 1243q-8 35 27 35 q39 0 47 -35l23 -110q8 -39 -31 -39q-35 0 -43 39z" />
<glyph unicode="&#xfd;" horiz-adv-x="1036" d="M-109 1006h74l139 -660q33 -150 138.5 -228.5t261.5 -78.5q309 0 309 289q0 59 -14 129l-117 549h74l205 -963q12 -63 12 -117q-1 -293 -402 -293q-418 0 -508 340h74q80 -272 424 -272q336 0 336 244q0 47 -12 100l-27 131q-63 -205 -340 -205q-188 0 -315 95 q-133 98 -172 278zM129 1096q-2 14 8 24l178 248q18 25 58 4q14 -10 16 -24q2 -11 -4 -27l-184 -246q-10 -12 -25 -12q-39 0 -47 33z" />
<glyph unicode="&#xfe;" horiz-adv-x="1155" d="M-190 1389h73l127 -601q35 121 140 185q96 57 229 57q236 0 401 -149q156 -141 207 -377q16 -84 17 -156q0 -182 -106 -279.5t-292 -97.5q-303 0 -473 244l119 -559h-74zM57 629q0 -55 13 -121q100 -467 530 -467q158 0 244 86t86 240q0 63 -15 135q-43 199 -172 325 q-140 136 -337 136q-160 0 -254.5 -88.5t-94.5 -245.5z" />
<glyph unicode="&#xff;" horiz-adv-x="1044" d="M-109 1004h74l139 -658q66 -307 400 -307q309 0 309 289q0 59 -14 129l-117 547h74l205 -961q12 -63 12 -117q-1 -293 -402 -293q-418 0 -508 340h74q80 -272 424 -272q336 0 336 244q0 47 -12 100l-27 131q-63 -205 -340 -205q-188 0 -315 95q-133 98 -172 278z M104 1243q-8 35 29 35q35 0 43 -35l25 -110q10 -39 -29 -39q-37 0 -45 39zM342 1243q-8 35 27 35q37 0 45 -35l24 -110q11 -39 -30 -39q-35 0 -43 39z" />
<glyph unicode="&#x152;" horiz-adv-x="2068" d="M-104 883q0 256 167 391q156 125 424 125q68 0 138 -10h1075l14 -68h-852q373 -170 479 -563h428l15 -68h-424q23 -100 22 -188q0 -293 -239 -434h850l14 -68h-1042q-82 -16 -177 -16q-336 0 -569 189t-303 517q-20 102 -20 193zM-29 866q0 -82 19 -176q63 -299 272 -470 t512 -171q86 0 160 19l-264 1247q-82 16 -168 16q-242 0 -381 -112q-150 -121 -150 -353zM743 1298l115 -540h410q-68 245 -256 399q-119 98 -269 141zM872 690l129 -604q147 49 226.5 165t79.5 273q0 78 -21 166h-414z" />
<glyph unicode="&#x153;" horiz-adv-x="2154" d="M-29 641q0 184 119 287q113 96 303 96q174 0 318.5 -84t228.5 -238q16 100 70 172q111 150 331 150q229 0 394.5 -131t212.5 -356l12 -58l-934 -2q104 -432 518 -432q135 0 225 57q102 66 123 193h76q-33 -317 -414 -318q-369 0 -530 310q-27 -154 -143 -236 q-109 -74 -271 -74q-236 0 -404.5 144.5t-217.5 378.5q-16 76 -17 141zM47 625q0 -57 14 -125q43 -203 187.5 -329t349.5 -126q164 0 262 87t98 245q0 57 -14 123q-43 207 -186 331.5t-352 124.5q-164 0 -261.5 -86t-97.5 -245zM1008 625q0 -39 4 -80h848 q-43 188 -178.5 299.5t-325.5 111.5q-160 0 -254 -88t-94 -243z" />
<glyph unicode="&#x178;" horiz-adv-x="1357" d="M-295 1393h96l719 -645l447 645h92l-486 -713l146 -680h-74l-145 680zM188 1632q-8 35 29 35q35 0 43 -35l25 -110q8 -39 -29 -39t-45 39zM426 1632q-8 35 27 35q37 0 45 -35l24 -110q9 -39 -30 -39q-35 0 -43 39z" />
<glyph unicode="&#x2c6;" horiz-adv-x="530" d="M-223 1106l162 274h59l285 -274h-88l-211 203l-125 -203h-82z" />
<glyph unicode="&#x2dc;" horiz-adv-x="749" d="M-166 1176q0 45 45 77q39 29 86 29q41 0 151.5 -47t143.5 -47q72 0 72 76q0 14 -2 28l71 -30q4 -57 -33 -94.5t-96 -37.5q-43 0 -154.5 47.5t-142.5 47.5q-68 0 -67 -76q0 -14 2 -31l-74 37q-2 10 -2 21z" />
<glyph unicode="&#x2000;" horiz-adv-x="894" />
<glyph unicode="&#x2001;" horiz-adv-x="1788" />
<glyph unicode="&#x2002;" horiz-adv-x="894" />
<glyph unicode="&#x2003;" horiz-adv-x="1788" />
<glyph unicode="&#x2004;" horiz-adv-x="596" />
<glyph unicode="&#x2005;" horiz-adv-x="447" />
<glyph unicode="&#x2006;" horiz-adv-x="298" />
<glyph unicode="&#x2007;" horiz-adv-x="298" />
<glyph unicode="&#x2008;" horiz-adv-x="223" />
<glyph unicode="&#x2009;" horiz-adv-x="357" />
<glyph unicode="&#x200a;" horiz-adv-x="99" />
<glyph unicode="&#x2010;" horiz-adv-x="716" d="M-29 561h557l9 -41h-557z" />
<glyph unicode="&#x2011;" horiz-adv-x="716" d="M-29 561h557l9 -41h-557z" />
<glyph unicode="&#x2012;" horiz-adv-x="716" d="M-29 561h557l9 -41h-557z" />
<glyph unicode="&#x2013;" horiz-adv-x="1013" d="M-135 561h1042l8 -41h-1042z" />
<glyph unicode="&#x2014;" horiz-adv-x="1830" d="M-135 561h1859l9 -41h-1860z" />
<glyph unicode="&#x2018;" horiz-adv-x="358" d="M-121 1069l25 293q2 25 30 24q47 0 46 -43l-27 -292q-2 -33 -39 -25t-35 43z" />
<glyph unicode="&#x2019;" horiz-adv-x="358" d="M-121 1069l27 293q2 33 37 24q39 -8 37 -43l-25 -292q-2 -25 -31 -25q-49 0 -45 43z" />
<glyph unicode="&#x201a;" horiz-adv-x="598" d="M215 -141l25 293q4 33 39 24q39 -8 34 -43l-22 -293q-2 -27 -31 -26q-39 0 -45 30v15z" />
<glyph unicode="&#x201c;" horiz-adv-x="546" d="M-121 1069l25 293q2 25 30 24q47 0 46 -43l-27 -292q-2 -33 -39 -25t-35 43zM94 1069l25 293q2 25 31 24q47 0 45 -43l-27 -292q-2 -33 -39 -25t-35 43z" />
<glyph unicode="&#x201d;" horiz-adv-x="565" d="M-121 1069l27 293q2 33 37 24q39 -8 37 -43l-25 -292q-2 -25 -31 -25q-49 0 -45 43zM94 1069l27 293q2 33 37 24q39 -8 37 -43l-25 -292q-2 -25 -31 -25q-49 0 -45 43z" />
<glyph unicode="&#x201e;" horiz-adv-x="718" d="M215 -141l25 293q4 33 39 24q39 -8 34 -43l-22 -293q-2 -27 -31 -26q-39 0 -45 30v15zM430 -141l25 293q4 33 39 24q39 -8 34 -43l-22 -293q-2 -27 -31 -26q-39 0 -45 30v15z" />
<glyph unicode="&#x2022;" horiz-adv-x="598" d="M-68 784q-8 35 142 35q152 0 159 -35l50 -237q8 -35 -144 -35q-150 0 -157 35z" />
<glyph unicode="&#x2026;" horiz-adv-x="1306" d="M231 141q-6 33 31 33t43 -33l25 -112q6 -33 -31 -33t-43 33zM618 141q-6 33 31 33t43 -33l25 -112q6 -33 -31 -33t-43 33zM1006 141q-6 33 30 33q37 0 43 -33l25 -112q6 -33 -31 -33t-43 33z" />
<glyph unicode="&#x202f;" horiz-adv-x="357" />
<glyph unicode="&#x2039;" horiz-adv-x="602" d="M6 586l287 231l16 -78l-215 -178l291 -180l16 -72l-383 226z" />
<glyph unicode="&#x203a;" horiz-adv-x="602" d="M-43 817l385 -231l12 -51l-288 -226l-17 72l215 180l-291 178z" />
<glyph unicode="&#x205f;" horiz-adv-x="447" />
<glyph unicode="&#x20ac;" horiz-adv-x="1196" d="M-55 762v67h92l-4 17q-16 76 -17 141q0 186 115 286.5t305 100.5q229 0 418 -157l-43 -50q-164 139 -362 140q-164 0 -260.5 -88.5t-96.5 -249.5q0 -57 14 -123l5 -17h604v-67h-590l39 -187h553l2 -69h-541l2 -4q43 -205 187.5 -332t351.5 -127q199 0 301 137l63 -47 q-119 -158 -348 -158q-240 0 -408.5 144.5t-220.5 382.5l-2 4h-155l-2 69h143l-39 187h-106z" />
<glyph unicode="&#x2122;" horiz-adv-x="1615" d="M-203 1401h699l440 -584l190 584h103l145 -690h-84l-119 563l-178 -563h-67l-430 571q41 -184 125 -571h-82l-131 620h-211l131 -620h-82l-131 620h-303z" />
<glyph unicode="&#x25fc;" horiz-adv-x="1003" d="M0 0v1004h1004v-1004h-1004z" />
</font>
</defs>
</svg>
